<svg width="88" height="23" viewBox="0 0 88 23" fill="none" xmlns="http://www.w3.org/2000/svg">
<g clip-path="url(#clip0_303_730)">
<path d="M11.5947 13.1653L10.5084 16.1234C10.4764 16.2055 10.4764 16.2966 10.5084 16.3786L12.3739 21.4698L14.5326 20.2301L11.943 13.1653C11.8834 13.0012 11.6543 13.0012 11.5947 13.1653Z" fill="white"/>
<path d="M13.7672 8.18813C13.7077 8.02404 13.4785 8.02404 13.4189 8.18813L12.3327 11.1462C12.3006 11.2283 12.3006 11.3194 12.3327 11.4015L15.3897 19.7379L17.5485 18.4982L13.7672 8.18813Z" fill="white"/>
<path d="M9.92747 1.71137C9.98247 1.71137 10.0329 1.72505 10.0833 1.7524L18.315 6.47897C18.4112 6.53367 18.4708 6.63391 18.4708 6.7433V16.1965C18.4708 16.3059 18.4112 16.4061 18.315 16.4608L10.0833 21.1919C10.0375 21.2193 9.98247 21.233 9.92747 21.233C9.87247 21.233 9.8221 21.2193 9.77167 21.1919L1.54458 16.4653C1.44833 16.4107 1.38875 16.3104 1.38875 16.201V6.7433C1.38875 6.63391 1.44833 6.53367 1.54458 6.47897L9.77624 1.7524C9.8221 1.72505 9.8771 1.71137 9.92747 1.71137ZM9.92747 0.330322C9.63414 0.330322 9.34081 0.407807 9.07957 0.558219L0.847914 5.28478C0.325416 5.5856 0 6.14166 0 6.7433V16.1965C0 16.7981 0.325416 17.3587 0.847914 17.6596L9.07957 22.3861C9.34081 22.5365 9.63414 22.614 9.92747 22.614C10.2208 22.614 10.5141 22.5365 10.7754 22.3861L19.007 17.6596C19.5341 17.3587 19.855 16.8027 19.855 16.1965V6.7433C19.855 6.14166 19.5296 5.58104 19.007 5.28022L10.78 0.558219C10.5141 0.407807 10.2208 0.330322 9.92747 0.330322Z" fill="white"/>
<path d="M4.48828 19.7468L5.24453 17.6866L6.7662 18.9446L5.34536 20.2391L4.48828 19.7468Z" fill="black"/>
<path d="M9.23519 6.06885H7.14976C6.99396 6.06885 6.85186 6.16455 6.80143 6.3104L2.32812 18.5074L4.48687 19.7472L9.41396 6.31495C9.45519 6.19647 9.3681 6.06885 9.23519 6.06885Z" fill="white"/>
<path d="M12.8918 6.06885H10.8064C10.6506 6.06885 10.5085 6.16455 10.4581 6.3104L5.34766 20.2394L7.50641 21.4792L13.066 6.31949C13.1118 6.19647 13.0201 6.06885 12.8918 6.06885Z" fill="white"/>
<path d="M28.7402 8.60693C28.9465 8.60693 29.1252 8.64794 29.2673 8.73456C29.4094 8.82117 29.5515 8.9852 29.689 9.23136L32.4114 14.1448C32.439 14.1995 32.4435 14.2451 32.4298 14.2815C32.4161 14.318 32.3748 14.3362 32.3106 14.3362H31.2656C31.174 14.3362 31.1098 14.2998 31.0777 14.2314L30.4956 13.1785H26.6319L26.0635 14.2314C26.0269 14.3043 25.9627 14.3362 25.8756 14.3362H24.8077C24.7344 14.3362 24.6932 14.318 24.6794 14.2815C24.6656 14.2451 24.6702 14.1995 24.6977 14.1448L27.3973 9.23136C27.5348 8.9852 27.6677 8.82117 27.8006 8.73456C27.9335 8.64794 28.0848 8.60693 28.259 8.60693H28.7402ZM27.1406 12.2214H29.9732L28.6669 9.82386C28.644 9.78739 28.6165 9.76462 28.5752 9.76462H28.5248C28.4882 9.76462 28.4561 9.78285 28.4332 9.82386L27.1406 12.2214Z" fill="white"/>
<path d="M38.3924 8.60693C39.0249 8.60693 39.4741 8.74824 39.7491 9.03081C40.024 9.31343 40.1616 9.7327 40.1616 10.2888V10.7537C40.1616 11.2232 40.0653 11.5923 39.8728 11.8658C39.6803 12.1393 39.3687 12.3125 38.9332 12.39L40.3403 14.122C40.3678 14.1494 40.377 14.1904 40.3632 14.2451C40.3541 14.2998 40.3082 14.3271 40.2303 14.3271H39.1716C39.0982 14.3271 39.0524 14.318 39.0249 14.3043C38.9974 14.2861 38.9699 14.2588 38.9424 14.2223L37.6408 12.5222H34.9824V14.1494C34.9824 14.2679 34.9228 14.3271 34.8037 14.3271H33.9145C33.7861 14.3271 33.7266 14.2679 33.7266 14.1494V8.85303C33.7266 8.68895 33.8091 8.60693 33.9741 8.60693H38.3924ZM34.987 11.5286H38.1358C38.4153 11.5286 38.6124 11.4693 38.727 11.3508C38.8416 11.2323 38.9011 11.05 38.9011 10.8038V10.462C38.9011 10.2159 38.8416 10.0336 38.727 9.91502C38.6124 9.79654 38.4153 9.7373 38.1358 9.7373H35.0924C35.0191 9.7373 34.987 9.76916 34.987 9.83755V11.5286Z" fill="white"/>
<path d="M47.0414 8.60693C47.6051 8.60693 48.0084 8.72087 48.2467 8.94419C48.4851 9.16752 48.6043 9.50483 48.6043 9.95608V10.348C48.6043 10.8038 48.4301 11.1502 48.0772 11.3872C48.453 11.606 48.6455 11.957 48.6455 12.4401V12.9142C48.6455 13.1329 48.6226 13.3289 48.5722 13.5021C48.5218 13.6753 48.4438 13.8257 48.3293 13.9488C48.2147 14.0718 48.068 14.1676 47.8801 14.2314C47.6922 14.2952 47.463 14.3317 47.188 14.3317H42.3022C42.1372 14.3317 42.0547 14.2496 42.0547 14.0855V8.85303C42.0547 8.68895 42.1372 8.60693 42.3022 8.60693H47.0414ZM43.3151 10.9861H46.6884C46.9634 10.9861 47.1468 10.9451 47.2476 10.8631C47.3485 10.7811 47.3943 10.6625 47.3943 10.503V10.225C47.3943 10.0563 47.3485 9.93325 47.2522 9.85123C47.1559 9.77376 47.0001 9.7327 46.7893 9.7327H43.4251C43.3518 9.7327 43.3197 9.76916 43.3197 9.83755V10.9861H43.3151ZM43.3151 11.8795V13.0965C43.3151 13.1694 43.3518 13.2013 43.4205 13.2013H46.7938C47.0138 13.2013 47.1697 13.1603 47.2614 13.0828C47.353 13.0053 47.4034 12.8777 47.4034 12.7045V12.3945C47.4034 12.2259 47.353 12.0983 47.2522 12.0117C47.1514 11.9251 46.9634 11.8795 46.6884 11.8795H43.3151Z" fill="white"/>
<path d="M51.7138 8.60693C51.833 8.60693 51.8925 8.66617 51.8925 8.78471V14.1494C51.8925 14.2679 51.833 14.3271 51.7138 14.3271H50.8246C50.6963 14.3271 50.6367 14.2679 50.6367 14.1494V8.78925C50.6367 8.67072 50.7009 8.61148 50.8246 8.61148L51.7138 8.60693Z" fill="white"/>
<path d="M60.331 8.60693C60.4596 8.60693 60.5188 8.66617 60.5188 8.78471V9.58685C60.5188 9.71447 60.4551 9.77376 60.331 9.77376H57.7508V14.1494C57.7508 14.2679 57.691 14.3271 57.5719 14.3271H56.6739C56.5543 14.3271 56.4951 14.2679 56.4951 14.1494V9.77376H53.9145C53.7862 9.77376 53.7266 9.70992 53.7266 9.58685V8.78471C53.7266 8.66617 53.7908 8.60693 53.9145 8.60693H60.331Z" fill="white"/>
<path d="M66.8298 8.60693C67.4627 8.60693 67.9117 8.74824 68.1864 9.03081C68.4617 9.31343 68.5993 9.7327 68.5993 10.2888V10.7537C68.5993 11.2232 68.5029 11.5923 68.3105 11.8658C68.1176 12.1393 67.8062 12.3125 67.3707 12.39L68.7776 14.122C68.8052 14.1494 68.8143 14.1904 68.8007 14.2451C68.7917 14.2998 68.746 14.3271 68.6676 14.3271H67.6093C67.536 14.3271 67.4898 14.318 67.4627 14.3043C67.435 14.2861 67.4074 14.2588 67.3798 14.2223L66.0784 12.5222H63.4198V14.1494C63.4198 14.2679 63.3605 14.3271 63.2409 14.3271H62.3519C62.2239 14.3271 62.1641 14.2679 62.1641 14.1494V8.85303C62.1641 8.68895 62.2464 8.60693 62.4117 8.60693H66.8298ZM63.4293 11.5286H66.5776C66.8574 11.5286 67.0543 11.4693 67.1693 11.3508C67.2839 11.2323 67.3431 11.05 67.3431 10.8038V10.462C67.3431 10.2159 67.2839 10.0336 67.1693 9.91502C67.0543 9.79654 66.8574 9.7373 66.5776 9.7373H63.5343C63.4609 9.7373 63.4293 9.76916 63.4293 9.83755V11.5286Z" fill="white"/>
<path d="M71.4585 8.60693C71.5781 8.60693 71.6373 8.66617 71.6373 8.78471V12.0481C71.6373 12.2669 71.6559 12.4492 71.6926 12.5905C71.7292 12.7364 71.7885 12.8503 71.8714 12.9324C71.9538 13.019 72.0638 13.0782 72.2059 13.1102C72.3481 13.1466 72.5218 13.1649 72.7373 13.1649H75.0151C75.2306 13.1649 75.4049 13.1466 75.5471 13.1102C75.6892 13.0737 75.7992 13.0144 75.8816 12.9324C75.964 12.8458 76.0238 12.7318 76.0559 12.5905C76.0881 12.4447 76.1061 12.2669 76.1061 12.0481V8.78471C76.1061 8.66617 76.1659 8.60693 76.2849 8.60693H77.183C77.3026 8.60693 77.3618 8.66617 77.3618 8.78471V12.1712C77.3618 12.5632 77.3206 12.8959 77.2383 13.1739C77.1559 13.4474 77.0228 13.6707 76.8394 13.844C76.6561 14.0172 76.4181 14.1402 76.1247 14.2177C75.8314 14.2952 75.4783 14.3317 75.0614 14.3317H72.6916C72.2747 14.3317 71.9216 14.2952 71.6328 14.2177C71.344 14.1402 71.1059 14.0172 70.9226 13.844C70.7392 13.6707 70.6061 13.4474 70.5192 13.1739C70.4318 12.9005 70.3906 12.5632 70.3906 12.1712V8.78471C70.3906 8.66617 70.4549 8.60693 70.5785 8.60693H71.4585Z" fill="white"/>
<path d="M80.8928 8.60693C81.0124 8.60693 81.1173 8.61602 81.2048 8.62971C81.2916 8.64794 81.3695 8.67532 81.4338 8.72541C81.4981 8.77102 81.5573 8.8348 81.6126 8.91227C81.6628 8.9898 81.7181 9.09465 81.7728 9.22681L83.4826 13.1512C83.5057 13.2013 83.5424 13.2241 83.5971 13.2241H83.6981C83.7528 13.2241 83.7895 13.2013 83.8126 13.1512L85.5224 9.22681C85.5771 9.09465 85.6324 8.9898 85.6826 8.91227C85.7328 8.8348 85.7926 8.77102 85.8614 8.72541C85.9257 8.67986 86.0036 8.64794 86.0859 8.62971C86.1728 8.61148 86.2738 8.60693 86.3928 8.60693H87.2728C87.5571 8.60693 87.7495 8.67072 87.8504 8.79834C87.9514 8.92596 87.9971 9.14474 87.9971 9.45468V14.1494C87.9971 14.2679 87.9328 14.3271 87.8093 14.3271H86.9704C86.8514 14.3271 86.7916 14.2679 86.7916 14.1494V9.87855C86.7916 9.82386 86.7691 9.79654 86.7273 9.79654H86.654C86.5993 9.79654 86.5626 9.81931 86.5491 9.86032L84.8895 13.5249C84.8257 13.6707 84.7569 13.7984 84.6881 13.8987C84.6193 13.9989 84.5459 14.081 84.4681 14.1494C84.3902 14.2132 84.2983 14.2633 84.1973 14.2906C84.0969 14.318 83.9773 14.3317 83.8402 14.3317H83.4459C83.3083 14.3317 83.1893 14.318 83.0883 14.2906C82.9873 14.2633 82.8959 14.2177 82.8181 14.1494C82.7402 14.0855 82.6624 13.9989 82.5981 13.8987C82.5293 13.7984 82.4604 13.6753 82.3961 13.5249L80.7371 9.86032C80.7191 9.81477 80.6869 9.79654 80.6316 9.79654H80.5583C80.5126 9.79654 80.494 9.82386 80.494 9.87855V14.1494C80.494 14.2679 80.4348 14.3271 80.3157 14.3271H79.4769C79.3483 14.3271 79.2891 14.2679 79.2891 14.1494V9.45468C79.2891 9.14474 79.3393 8.92596 79.4357 8.79834C79.5361 8.67072 79.7291 8.60693 80.0173 8.60693H80.8928Z" fill="white"/>
</g>
<defs>
<clipPath id="clip0_303_730">
<rect width="88" height="23" fill="white"/>
</clipPath>
</defs>
</svg>
