<svg width="100" height="21" viewBox="0 0 100 21" fill="none" xmlns="http://www.w3.org/2000/svg">
<g clip-path="url(#clip0_303_615)">
<path d="M27.0482 6.97119H28.1347L31.1781 14.0253H29.7409L29.0834 12.4111H26.0211L25.3824 14.0253H23.9766L27.0482 6.97119ZM28.645 11.3351L27.5585 8.46645L26.4501 11.3351H28.645Z" fill="white"/>
<path d="M32.5273 6.97119H33.9739L35.8995 12.3017L37.8846 6.97119H39.2404L36.388 14.0253H35.3015L32.5273 6.97119Z" fill="white"/>
<path d="M43.731 6.97119H44.8175L47.8578 14.0253H46.4206L45.7631 12.4111H42.7008L42.0621 14.0253H40.6562L43.731 6.97119ZM45.3247 11.3351L44.2382 8.46645L43.1298 11.3351H45.3247Z" fill="white"/>
<path d="M50.6406 6.97119H51.8962V12.8898H54.8989V14.0253H50.6406V6.97119Z" fill="white"/>
<path d="M60.0903 6.97119H61.1768L64.2203 14.0253H62.7831L62.1256 12.4111H59.0602L58.4215 14.0253H57.0156L60.0903 6.97119ZM61.6841 11.3351L60.5976 8.46645L59.4892 11.3351H61.6841Z" fill="white"/>
<path d="M67 6.97119H68.6656L72.0879 12.2141H72.1064V6.97119H73.3618V14.0253H71.765L68.2739 8.61352H68.2554V14.0253H67V6.97119Z" fill="white"/>
<path d="M81.7808 8.62633C81.5209 8.34792 81.2706 8.16019 81.0228 8.06951C80.7853 7.97565 80.5407 7.92875 80.2967 7.92875C79.9305 7.92875 79.5986 7.99442 79.298 8.12895C79.0063 8.25406 78.7528 8.43548 78.54 8.66699C78.3273 8.8922 78.1611 9.15814 78.0419 9.46468C77.9292 9.77128 77.8732 10.0997 77.8732 10.4501C77.8732 10.8286 77.9292 11.179 78.0419 11.4949C78.1611 11.814 78.3273 12.0893 78.54 12.3207C78.7528 12.5522 79.0063 12.7368 79.298 12.8682C79.5986 12.9996 79.9305 13.0684 80.2967 13.0684C80.5814 13.0684 80.8572 13.0027 81.1235 12.8682C81.3954 12.7274 81.649 12.5085 81.8808 12.2113L82.9171 12.9495C82.598 13.3875 82.2095 13.7065 81.7496 13.9068C81.2923 14.107 80.8005 14.2071 80.284 14.2071C79.7394 14.2071 79.2381 14.1195 78.7783 13.9475C78.3273 13.7692 77.9324 13.5189 77.6005 13.1998C77.2751 12.8744 77.0184 12.4866 76.8337 12.033C76.649 11.5825 76.5547 11.0789 76.5547 10.5283C76.5547 9.96206 76.649 9.4522 76.8337 8.9923C77.0184 8.52623 77.2751 8.13207 77.6005 7.80676C77.9324 7.48138 78.3241 7.2311 78.7783 7.05909C79.2349 6.88078 79.7394 6.79004 80.284 6.79004C80.763 6.79004 81.2044 6.87767 81.6114 7.04968C82.0248 7.21551 82.4069 7.50016 82.7579 7.90686L81.7808 8.62633Z" fill="white"/>
<path d="M85.7539 6.97119H87.0093V9.78035H90.3093V6.97119H91.5647V14.0253H90.3093V10.9159H87.0093V14.0253H85.7539V6.97119Z" fill="white"/>
<path d="M95.1406 6.97119H99.8183V8.10672H96.396V9.83979H99.6368V10.9753H96.396V12.8898H99.9967V14.0253H95.1406V6.97119Z" fill="white"/>
<path fill-rule="evenodd" clip-rule="evenodd" d="M20.2581 10.5002C20.2581 16.0904 15.7243 20.6201 10.129 20.6201C4.5338 20.6201 0 16.0904 0 10.5002C0 4.91005 4.5338 0.380371 10.129 0.380371C15.7243 0.380371 20.2581 4.91005 20.2581 10.5002ZM7.25783 14.5263H5.29153C4.87822 14.5263 4.6747 14.5263 4.54946 14.448C4.41482 14.3604 4.33341 14.2165 4.32402 14.057C4.31776 13.91 4.41796 13.7317 4.62147 13.372L9.47465 4.82559C9.68127 4.46272 9.78465 4.28128 9.91611 4.21246C10.057 4.14051 10.2261 4.14051 10.3701 4.21246C10.5017 4.27815 10.605 4.45959 10.8116 4.82559L11.8104 6.5649L11.8167 6.57425C12.039 6.96218 12.1517 7.16238 12.2018 7.36882C12.255 7.59409 12.255 7.83495 12.2018 8.06016C12.1517 8.26978 12.039 8.46686 11.8136 8.86414L9.26484 13.3657L9.2586 13.3782C9.03319 13.7724 8.92045 13.9694 8.76389 14.1196C8.59166 14.2823 8.38503 14.4043 8.15962 14.4699C7.95293 14.5263 7.72127 14.5263 7.25783 14.5263ZM12.2206 14.5263H15.0386C15.455 14.5263 15.6617 14.5263 15.7869 14.4449C15.9215 14.3573 16.0061 14.2103 16.0124 14.0508C16.0186 13.91 15.9184 13.7379 15.7243 13.4001C15.718 13.3875 15.7118 13.3782 15.7024 13.3657L14.2903 10.9538L14.2746 10.9256C14.0773 10.5909 13.9771 10.422 13.8488 10.3563C13.7079 10.2844 13.5388 10.2844 13.3979 10.3563C13.2695 10.422 13.1631 10.6003 12.9564 10.957L11.5506 13.3688L11.5443 13.3782C11.3376 13.7317 11.2343 13.91 11.2437 14.057C11.2531 14.2165 11.3345 14.3636 11.4692 14.4512C11.5975 14.5263 11.8073 14.5263 12.2206 14.5263Z" fill="white"/>
</g>
<defs>
<clipPath id="clip0_303_615">
<rect width="100" height="21" fill="white"/>
</clipPath>
</defs>
</svg>
