<svg width="87" height="24" viewBox="0 0 87 24" fill="none" xmlns="http://www.w3.org/2000/svg">
<g clip-path="url(#clip0_303_632)">
<path d="M24.2734 3.33132H28.2757C29.2927 3.33132 30.0362 3.60316 30.5174 4.07073C30.9876 4.47306 31.1954 5.01675 31.1954 5.54956C31.1954 5.75618 31.1954 6.01711 31.1298 6.22373C30.9985 6.56085 30.7907 6.89791 30.5174 7.16973C30.3862 7.30022 30.244 7.37635 30.1128 7.44159C30.583 7.57209 30.9985 7.8439 31.3375 8.18102C31.6109 8.51808 31.7421 8.92044 31.7421 9.52937C31.7421 9.86643 31.6765 10.2688 31.5343 10.5406C31.4031 10.8125 31.1298 11.0843 30.8564 11.28C30.5174 11.4867 30.1784 11.6171 29.8394 11.7476C29.4348 11.8781 28.9536 11.8781 28.4835 11.8781H24.339V3.30957H24.2734V3.33132ZM27.9367 6.83266C28.2757 6.83266 28.6147 6.76742 28.9536 6.62604C29.2271 6.4956 29.3583 6.22373 29.3583 5.95192C29.3583 5.68005 29.227 5.4082 29.0193 5.27772C28.7459 5.07112 28.4069 5.00587 28.0679 5.07112H26.1652V6.88703H27.9258V6.83266H27.9367ZM28.4069 10.2796C28.7459 10.2796 29.0849 10.2144 29.4238 10.0731C29.6972 9.94256 29.8285 9.67069 29.7629 9.33363C29.7629 9.06176 29.6316 8.78995 29.4238 8.65946C29.2161 8.52896 28.8115 8.38764 28.3413 8.38764H26.0996V10.2796H28.4069Z" fill="white"/>
<path d="M34.1094 3.33154H36.0121V11.9653H34.1094V3.33154Z" fill="white"/>
<path d="M38.9297 3.33154H40.6902L44.7581 8.65968V3.33154H46.6499V11.9653H45.0315L40.7558 6.49583V11.9653H38.9297V3.33154Z" fill="white"/>
<path d="M52.4242 3.26611H54.1847L57.9134 11.9651H55.9453L55.1361 10.0078H51.4728L50.6636 11.9651H48.6953L52.4242 3.26611ZM54.4581 8.38768L53.3099 5.56048L52.1617 8.38768H54.4581Z" fill="white"/>
<path d="M59.9453 3.33154H61.7055L65.7737 8.65968V3.33154H67.6765V11.9653H66.0471L61.8369 6.49583V11.9653H59.9453V3.33154Z" fill="white"/>
<path d="M74.5896 12.0954C73.9772 12.0954 73.3648 11.9649 72.8288 11.7583C71.7466 11.2908 70.9266 10.4752 70.4562 9.39872C70.2485 8.85504 70.1172 8.25699 70.1172 7.64806C70.1172 6.50628 70.5876 5.35368 71.4076 4.48379C71.8123 4.08146 72.2933 3.74437 72.8288 3.53777C73.4412 3.26592 74.0535 3.20068 74.6552 3.20068C74.9942 3.20068 75.3989 3.20068 75.738 3.26592C76.077 3.33117 76.3503 3.39641 76.6237 3.53777C76.897 3.66825 77.1704 3.80961 77.3674 3.9401C77.5751 4.07058 77.8372 4.27718 78.0449 4.48379L76.897 5.8974C76.558 5.62553 76.219 5.35368 75.88 5.15796C75.5409 4.96223 75.1363 4.88611 74.7316 4.88611C74.3925 4.88611 74.0535 4.95136 73.7151 5.09272C73.376 5.2232 73.1027 5.4298 72.9057 5.70166C72.7087 5.97348 72.501 6.24535 72.359 6.58241C72.2276 6.91952 72.1513 7.25658 72.1513 7.5937C72.1513 7.93076 72.2164 8.33312 72.359 8.67018C72.501 9.00724 72.6323 9.27911 72.9057 9.55093C73.376 10.0947 74.0535 10.3556 74.7316 10.3556C75.1363 10.3556 75.6173 10.2904 76.022 10.0838C76.361 9.87716 76.7657 9.61617 77.039 9.34436L78.2531 10.5513C78.0449 10.758 77.7827 11.0189 77.5751 11.2255C77.3017 11.4321 77.0284 11.5626 76.7657 11.6931C76.4923 11.8236 76.1533 11.9649 75.8143 12.0302C75.3333 12.0954 74.9286 12.0954 74.5896 12.0954Z" fill="white"/>
<path d="M80.4297 3.33154H86.9362V5.01697H82.2561V6.76765H86.3895V8.45306H82.2561V10.2799H87.0018V11.9653H80.4297V3.33154Z" fill="white"/>
<path d="M26.7135 20.4572C26.2433 20.4572 25.7621 20.392 25.3575 20.1854C24.953 20.0549 24.5483 19.783 24.1328 19.446L24.8108 18.7065C25.0841 18.9784 25.3575 19.1088 25.6965 19.3155C26.0355 19.446 26.3745 19.5221 26.7135 19.5221C26.9869 19.5221 27.2603 19.4568 27.5227 19.3155C27.7305 19.185 27.7961 18.9784 27.7961 18.7718C27.7961 18.7065 27.7961 18.5652 27.7305 18.4999C27.6648 18.4347 27.5992 18.2934 27.5227 18.2281C27.3915 18.1629 27.2493 18.0976 27.1181 18.0215C26.9104 17.9562 26.6479 17.891 26.4401 17.8149C26.1668 17.7497 25.8277 17.6844 25.5544 17.543C25.3466 17.4778 25.0841 17.3365 24.942 17.206C24.8108 17.0755 24.6686 16.9341 24.5374 16.7384C24.4062 16.4666 24.4062 16.1947 24.4062 15.999C24.4062 15.7271 24.4718 15.5314 24.5374 15.2596C24.603 15.053 24.8108 14.8572 24.942 14.7159C25.1498 14.5854 25.3466 14.444 25.62 14.3788C25.8934 14.3135 26.1668 14.2483 26.4292 14.2483C26.8338 14.2483 27.2384 14.3135 27.6539 14.4549C27.9929 14.5854 28.3319 14.792 28.6709 14.9986L28.1241 15.8033C27.8507 15.5966 27.5774 15.4662 27.3149 15.3357C27.0415 15.2052 26.7682 15.2052 26.5057 15.2052C26.2324 15.2052 25.959 15.2704 25.7621 15.4118C25.6309 15.5423 25.4888 15.7489 25.4888 15.9555C25.4888 16.086 25.4888 16.1621 25.5544 16.2926C25.62 16.3578 25.6856 16.4992 25.7621 16.5644C25.8934 16.6296 26.0355 16.6949 26.2324 16.771C26.4401 16.8363 26.637 16.9015 26.976 16.9776C27.2493 17.0428 27.5227 17.1081 27.8617 17.2495C28.0695 17.3147 28.2663 17.4561 28.4741 17.5865C28.6053 17.717 28.7475 17.9236 28.813 18.0541C28.8786 18.2607 28.9442 18.4564 28.9442 18.7283C28.9442 19.0001 28.8786 19.272 28.813 19.4677C28.6818 19.6743 28.5397 19.87 28.3428 20.0767C28.1351 20.2071 27.9382 20.3485 27.6648 20.4137C27.3259 20.392 26.9869 20.4572 26.7135 20.4572Z" fill="white"/>
<path d="M30.1055 14.3252H31.2646L33.0907 17.1524L34.9935 14.3252H36.1417V20.3928H35.0591V16.0106L33.1564 18.8378H33.0907L31.199 16.0106V20.3928H30.1055V14.3252Z" fill="white"/>
<path d="M39.8033 14.2593H40.8203L43.4666 20.3268H42.3184L41.7061 18.848H38.8629L38.2505 20.3268H37.168L39.8033 14.2593ZM41.3671 17.9672L40.2845 15.5423L39.2675 17.9672H41.3671Z" fill="white"/>
<path d="M44.55 14.3252H47.2619C47.6009 14.3252 47.9399 14.3904 48.2789 14.4557C48.5523 14.5209 48.8256 14.7276 49.0225 14.9232C49.1537 15.0537 49.2959 15.2604 49.427 15.5322C49.4927 15.7388 49.5583 15.9998 49.5583 16.2716C49.5583 16.4782 49.4927 16.7391 49.427 16.9458C49.3614 17.1524 49.2193 17.2829 49.1537 17.4895C49.0225 17.6199 48.8803 17.7613 48.6834 17.8918C48.4757 18.0223 48.2789 18.0984 48.0711 18.1636L49.7004 20.458H48.4101L46.9229 18.3703H45.5669V20.458H44.4844L44.55 14.3252ZM47.1963 17.2937C47.5353 17.2937 47.8743 17.2285 48.082 17.0219C48.2898 16.8153 48.421 16.5543 48.421 16.2825C48.421 16.0106 48.2898 15.7388 48.082 15.5431C47.8087 15.3365 47.4697 15.2712 47.1307 15.2712H45.5669V17.2937H47.1963Z" fill="white"/>
<path d="M52.3472 15.2712H50.3789V14.3252H55.3325V15.2712H53.3642V20.3928H52.2816L52.3472 15.2712Z" fill="white"/>
<path d="M61.9143 20.4572C61.5097 20.4572 61.105 20.3919 60.6896 20.1853C59.9459 19.8482 59.3335 19.3045 59.0602 18.5651C58.9288 18.1628 58.7868 17.7605 58.8525 17.3473C58.8525 16.945 58.9182 16.5426 59.0602 16.1294C59.3335 15.39 59.9459 14.781 60.6896 14.444C61.0943 14.3135 61.4984 14.1721 61.98 14.1721C62.2534 14.1721 62.5267 14.1721 62.7232 14.2374C62.9314 14.3026 63.1279 14.3679 63.3355 14.444C63.5438 14.5092 63.6746 14.6506 63.8828 14.7158C64.0136 14.8463 64.2212 14.9877 64.3526 15.1182L63.6746 15.9228C63.4669 15.7162 63.2048 15.5205 62.9314 15.3791C62.6581 15.2486 62.319 15.1725 61.98 15.1725C61.7067 15.1725 61.4333 15.2378 61.1706 15.303C60.8973 15.4335 60.7003 15.5748 60.4926 15.7706C60.2849 15.9771 60.1536 16.1729 60.0879 16.4448C60.0222 16.7166 59.9566 16.9884 59.9566 17.2494C59.9566 17.5212 60.0222 17.7931 60.0879 18.054C60.1536 18.315 60.2956 18.5216 60.4926 18.7282C60.7003 18.9348 60.8973 19.0653 61.1706 19.1958C61.444 19.3263 61.7173 19.4024 61.98 19.3263C62.319 19.3263 62.6581 19.261 62.9314 19.1197C63.2048 18.9892 63.4781 18.7826 63.7402 18.5108L64.4183 19.1849C64.2869 19.3154 64.0792 19.522 63.9479 19.6525C63.7402 19.783 63.6089 19.9244 63.4012 19.9896C63.1935 20.0548 62.9965 20.1962 62.7232 20.1962C62.4498 20.4572 62.1765 20.4572 61.9143 20.4572Z" fill="white"/>
<path d="M65.5 14.3252H66.5171V16.8153H69.4369V14.3252H70.5196V20.3928H69.4369V17.8266H66.5171V20.3928H65.5V14.3252Z" fill="white"/>
<path d="M74.2485 14.2593H75.2656L77.9121 20.3268H76.7637L76.1513 18.848H73.3084L72.696 20.3268H71.6133L74.2485 14.2593ZM75.7466 17.9672L74.7296 15.5423L73.7131 17.9672H75.7466Z" fill="white"/>
<path d="M79 14.3252H80.0934V20.3928H79V14.3252Z" fill="white"/>
<path d="M81.707 14.3252H82.6584L85.9173 18.5007V14.3252H87V20.3928H86.1143L82.801 16.0759V20.3928H81.707V14.3252Z" fill="white"/>
<path d="M12.3457 19.9899V22.6214L10.0385 23.9697L7.79677 22.6214V19.9899L10.0385 21.3383L12.3457 19.9899ZM0 10.8886L2.2417 12.237V16.7495L6.10179 19.0439V21.6754L0 18.0979V10.8886ZM20.0769 10.8886V18.1088L13.9095 21.6862V19.0548L17.7696 16.7604V12.2478L20.0769 10.8886ZM13.8986 7.3111L16.2059 8.65945V11.2909L12.3457 13.5853V18.1631L10.1041 19.5115L7.87328 18.1631V13.5744L3.87104 11.28V8.64857L6.17835 7.30027L10.0385 9.59461L13.8986 7.3111ZM3.87104 13.1721L6.11273 14.5204V17.1519L3.87104 15.8035V13.1721ZM16.2059 13.1721V15.8035L13.9642 17.1519V14.5204L16.2059 13.1721ZM2.2417 5.01676L4.54902 6.36511L2.2417 7.71346V10.3449L0 8.99657V6.36511L2.2417 5.01676ZM17.8352 5.01676L20.1425 6.36511V8.99657L17.8352 10.3449V7.71346L15.5935 6.36511L17.8352 5.01676ZM10.0385 5.01676L12.3457 6.36511L10.0385 7.71346L7.79677 6.36511L10.0385 5.01676ZM10.0385 0.50415L16.2059 4.08162L13.9642 5.42996L10.1041 3.1356L6.1674 5.42996L3.92571 4.08162L10.0385 0.50415Z" fill="white"/>
</g>
<defs>
<clipPath id="clip0_303_632">
<rect width="87" height="24" fill="white"/>
</clipPath>
</defs>
</svg>
