<svg width="92" height="17" viewBox="0 0 92 17" fill="none" xmlns="http://www.w3.org/2000/svg">
<g clip-path="url(#clip0_303_583)">
<path fill-rule="evenodd" clip-rule="evenodd" d="M10.1961 12.0121L8.94647 10.7397C8.50451 11.1638 8.01686 11.5122 7.49871 11.8C6.95013 12.0726 6.34057 12.209 5.73098 12.1939C5.22809 12.1939 4.72519 12.0878 4.25278 11.8757C3.81084 11.6636 3.39938 11.3759 3.07936 11.0275C2.7441 10.6639 2.48503 10.2246 2.3174 9.75507C2.13453 9.25515 2.0431 8.72499 2.0431 8.19482C2.0431 7.66465 2.13453 7.14961 2.3174 6.64975C2.50027 6.19533 2.75934 5.77118 3.07936 5.39248C3.41462 5.02893 3.81084 4.74112 4.25278 4.54421C4.70995 4.33213 5.21285 4.2261 5.73098 4.2261C6.32529 4.21095 6.91964 4.34728 7.43779 4.61994C7.95588 4.89261 8.42832 5.22586 8.855 5.6197L10.1199 4.16551C9.86081 3.90799 9.57124 3.68078 9.28174 3.46871C8.9769 3.25664 8.6569 3.07487 8.30642 2.9234C7.94066 2.75677 7.54447 2.63558 7.14822 2.55984C6.69105 2.46896 6.21861 2.42351 5.74622 2.43866C4.93854 2.42351 4.1461 2.59014 3.41462 2.89309C2.72886 3.1809 2.10405 3.60504 1.58592 4.13521C1.08303 4.66539 0.686809 5.2713 0.412502 5.95293C0.138197 6.66488 -0.0141958 7.43744 0.00104337 8.21C0.00104337 8.98251 0.138196 9.75507 0.427741 10.467C0.702048 11.1487 1.11351 11.7697 1.6164 12.2999C2.13453 12.8149 2.7441 13.2391 3.41462 13.5268C4.13086 13.8298 4.90806 13.9813 5.68526 13.9813C6.1729 13.9813 6.64535 13.9358 7.11773 13.845C7.5292 13.7541 7.92545 13.6329 8.29115 13.4511C8.64169 13.2693 8.99217 13.0724 9.31217 12.8301C9.60173 12.6029 9.90651 12.315 10.1961 12.0121Z" fill="white"/>
<path fill-rule="evenodd" clip-rule="evenodd" d="M35.5414 5.60507C35.5414 5.22638 35.7243 4.87798 36.0138 4.65076C36.3338 4.39325 36.7757 4.27207 37.3548 4.27207C37.8729 4.27207 38.3759 4.3781 38.8635 4.57502C39.3969 4.80224 39.915 5.09005 40.3722 5.4233L41.4237 3.93881C40.8751 3.49953 40.2502 3.13598 39.595 2.89362C38.894 2.6361 38.1473 2.51492 37.4005 2.53007C36.8824 2.53007 36.3642 2.60581 35.8766 2.75729C35.4347 2.89362 35.0232 3.12083 34.688 3.42379C34.3527 3.7116 34.0936 4.05999 33.9108 4.45384C33.7126 4.86283 33.606 5.31727 33.6212 5.78685C33.606 6.24127 33.6974 6.6957 33.865 7.10469C34.0327 7.46826 34.2765 7.77121 34.5813 8.02873C34.9318 8.30138 35.328 8.51347 35.7395 8.66494C36.2576 8.84673 36.791 8.9982 37.3244 9.11937C37.751 9.22542 38.1777 9.34658 38.5892 9.48294C38.8635 9.5738 39.1073 9.69497 39.3512 9.86163C39.5188 9.96761 39.656 10.1191 39.7322 10.3009C39.8083 10.4675 39.8388 10.6493 39.8388 10.8462C39.8541 11.2552 39.656 11.649 39.3054 11.8762C38.8787 12.1489 38.3759 12.2852 37.8729 12.2701C37.2329 12.2852 36.5776 12.1489 35.9833 11.8914C35.389 11.6036 34.8403 11.2552 34.3527 10.8159L33.1641 12.2095C34.4137 13.3759 36.0747 14.0121 37.7967 13.997C38.3454 13.997 38.894 13.9212 39.4121 13.7698C39.8693 13.6334 40.296 13.4062 40.6617 13.1184C41.0123 12.8306 41.2865 12.4821 41.4694 12.0732C41.6675 11.6187 41.7589 11.1492 41.7589 10.6493C41.7589 10.2251 41.6827 9.81614 41.5303 9.42232C41.378 9.07394 41.1494 8.75581 40.8599 8.51347C40.5246 8.22564 40.1436 7.99843 39.7322 7.84695C39.2292 7.65004 38.7111 7.48338 38.1778 7.34709C37.6443 7.22586 37.2025 7.08957 36.8672 6.98353C36.5776 6.89266 36.3185 6.77144 36.0595 6.60484C35.8766 6.49879 35.7395 6.33219 35.6481 6.15041C35.5719 5.98375 35.5414 5.802 35.5414 5.60507Z" fill="white"/>
<path fill-rule="evenodd" clip-rule="evenodd" d="M57.3032 5.7562V13.724H59.2386V2.62061H57.1508L53.7677 7.87689L50.3846 2.62061H48.2969V13.724H50.2322V5.7865L53.722 10.9973H53.783L57.3032 5.7562Z" fill="white"/>
<path fill-rule="evenodd" clip-rule="evenodd" d="M75.5417 8.24066C75.5417 8.77082 75.4503 9.28586 75.2669 9.78572C75.0994 10.2553 74.8252 10.6795 74.4902 11.043C73.789 11.7852 72.8135 12.2093 71.7927 12.1942C71.2743 12.1942 70.7412 12.0882 70.2688 11.8761C69.8118 11.664 69.4001 11.3762 69.0645 11.0127C68.7296 10.6491 68.4553 10.2098 68.2879 9.74029C67.9069 8.74052 67.9069 7.64988 68.2879 6.6501C68.4553 6.18055 68.7142 5.75641 69.0498 5.39286C69.7504 4.65061 70.7259 4.22648 71.7467 4.24162C72.2651 4.24162 72.7982 4.34766 73.2706 4.55973C73.7282 4.7718 74.1393 5.05961 74.4749 5.42315C74.8098 5.7867 75.0841 6.22598 75.2669 6.69559C75.4503 7.18033 75.5417 7.71049 75.5417 8.24066ZM77.5987 8.19523C77.5987 7.42266 77.4619 6.66529 77.1723 5.95334C76.8975 5.27168 76.5018 4.65061 75.9834 4.12044C75.465 3.59027 74.8405 3.16613 74.1546 2.87832C73.408 2.56022 72.6001 2.40874 71.7927 2.42388C70.2081 2.40874 68.6836 3.0298 67.5713 4.15073C67.0382 4.68091 66.6265 5.30197 66.3523 5.99877C65.7732 7.43779 65.7732 9.02834 66.3523 10.4674C66.6265 11.149 67.0382 11.7701 67.5406 12.3003C68.059 12.8304 68.6836 13.2545 69.3694 13.5424C70.1161 13.8604 70.924 14.012 71.732 13.9968C72.5393 14.012 73.3473 13.8453 74.0939 13.5272C74.7945 13.2394 75.4196 12.8001 75.9374 12.2699C76.4711 11.7398 76.8828 11.1187 77.157 10.4219C77.4619 9.72511 77.5987 8.96773 77.5987 8.19523Z" fill="white"/>
<path fill-rule="evenodd" clip-rule="evenodd" d="M85.7528 5.60507C85.7528 5.22638 85.9357 4.87798 86.2252 4.65076C86.5455 4.39325 86.9872 4.27207 87.5663 4.27207C88.0847 4.27207 88.5877 4.3781 89.0749 4.57502C89.6086 4.80224 90.1264 5.09005 90.584 5.4233L91.6355 3.93881C91.0865 3.49953 90.4619 3.15113 89.8067 2.89362C89.1055 2.6361 88.3589 2.51492 87.6123 2.53007C87.0939 2.53007 86.5761 2.60581 86.0884 2.75729C85.6461 2.89362 85.235 3.12083 84.8995 3.42379C84.5645 3.7116 84.305 4.05999 84.1222 4.45384C83.924 4.86283 83.8173 5.31727 83.8326 5.78685C83.8173 6.24127 83.9093 6.6957 84.0768 7.10469C84.2443 7.46826 84.4878 7.77121 84.7927 8.02873C85.1436 8.30138 85.5394 8.51347 85.951 8.66494C86.4694 8.84673 87.0025 8.9982 87.5362 9.11937C87.9626 9.22542 88.3896 9.34658 88.8006 9.48294C89.0749 9.5738 89.319 9.69497 89.5626 9.86163C89.7307 9.96761 89.8675 10.1191 89.9436 10.3009C90.0202 10.4675 90.0503 10.6493 90.0503 10.8462C90.0656 11.2552 89.8675 11.649 89.5172 11.8762C89.0902 12.1489 88.5877 12.2852 88.0847 12.2701C87.4442 12.2852 86.789 12.1489 86.2099 11.8914C85.616 11.6036 85.067 11.2552 84.5792 10.8159L83.4062 12.2247C84.6559 13.3911 86.3166 14.0273 88.0387 14.0121C88.5877 14.0121 89.1362 13.9363 89.654 13.7849C90.1116 13.6486 90.538 13.4214 90.9037 13.1335C91.2546 12.8457 91.5288 12.4973 91.7116 12.0883C91.9098 11.6339 92.0012 11.1492 92.0012 10.6644C92.0012 10.2403 91.9251 9.83132 91.7724 9.43745C91.6202 9.08906 91.3914 8.77099 91.1018 8.52859C90.7668 8.24076 90.3859 8.01355 89.9742 7.86207C89.4712 7.66517 88.9534 7.49857 88.4197 7.36222C87.8865 7.24105 87.4442 7.1047 87.1093 6.99865C86.8197 6.90779 86.5608 6.77144 86.3013 6.60484C86.1185 6.49879 85.9817 6.33219 85.8903 6.15041C85.7835 5.98375 85.7528 5.802 85.7528 5.60507Z" fill="white"/>
<path fill-rule="evenodd" clip-rule="evenodd" d="M23.5145 4.8473L18.1961 10.149C18.1199 10.0127 18.0589 9.87636 17.9979 9.74006C17.6322 8.75541 17.6322 7.66477 17.9979 6.66506C18.1808 6.19544 18.4399 5.77131 18.7752 5.40776C19.1104 5.04422 19.5066 4.75641 19.9486 4.55949C20.4209 4.34742 20.9544 4.24138 21.4725 4.24138C21.9906 4.24138 22.5088 4.34742 22.9964 4.55949C23.1945 4.65037 23.3469 4.74126 23.5145 4.8473ZM23.0421 11.8607C22.5697 12.0728 22.0363 12.1789 21.5182 12.1789C20.802 12.194 20.101 11.9819 19.5066 11.5881L24.8099 6.28637C24.8861 6.42266 24.947 6.55901 24.9928 6.6953C25.3585 7.67996 25.3585 8.77059 24.9928 9.77031C24.8251 10.2399 24.566 10.664 24.2308 11.0276C23.8955 11.3912 23.4993 11.6638 23.0421 11.8607ZM23.8498 13.527C24.5355 13.224 25.1756 12.7999 25.709 12.2697C26.2271 11.7396 26.6386 11.1185 26.9281 10.4368C27.5072 9.01293 27.5072 7.40725 26.9281 5.98336C26.7605 5.57439 26.5624 5.19569 26.3033 4.83214L29.7626 1.37845L28.3911 0L24.9166 3.46884C24.5965 3.24163 24.246 3.05986 23.8955 2.92353C23.1488 2.62057 22.3411 2.45394 21.5334 2.46909C19.9638 2.45394 18.4399 3.07501 17.3427 4.18079C16.8245 4.71096 16.3978 5.33203 16.1235 6.01366C15.3615 7.86174 15.5902 9.9824 16.7636 11.6184L13.2891 15.0569L14.6606 16.4354L18.1351 12.9665C18.4551 13.1786 18.7904 13.3604 19.1409 13.5118C19.8876 13.8148 20.6953 13.9814 21.503 13.9663C22.2954 13.9966 23.1031 13.83 23.8498 13.527Z" fill="white"/>
</g>
<defs>
<clipPath id="clip0_303_583">
<rect width="92" height="17" fill="white"/>
</clipPath>
</defs>
</svg>
