<svg width="78" height="24" viewBox="0 0 78 24" fill="none" xmlns="http://www.w3.org/2000/svg">
<g clip-path="url(#clip0_303_678)">
<path d="M4.98438 2.37016C6.87565 0.83847 9.24645 0.0126953 11.6838 0.0126953C14.1212 0.0126953 16.4786 0.86511 18.3699 2.39679C18.3699 2.46339 18.3166 2.49003 18.2767 2.52998C17.4909 3.32912 16.6917 4.11494 15.9059 4.91408C15.8926 4.94072 15.866 4.96736 15.8393 4.98068C15.8127 4.994 15.7861 5.0073 15.7461 5.0073C15.7194 5.0073 15.6795 5.0073 15.6529 4.99399C15.6262 4.98067 15.5996 4.96735 15.573 4.94071C14.4142 4.20817 13.069 3.82192 11.6972 3.8086C10.3253 3.79528 8.98005 4.16822 7.808 4.87412C7.7414 4.91408 7.6748 4.95403 7.6082 5.0073L4.98438 2.37016Z" fill="white"/>
<path d="M18.3438 7.65745C19.2095 6.7784 20.0752 5.886 20.941 4.99365C24.3773 9.2424 23.7646 15.1427 20.941 18.5258C20.0752 17.6467 19.2228 16.7677 18.3438 15.8886C19.9554 13.1715 19.982 10.4145 18.3438 7.65745Z" fill="white"/>
<path d="M18.3325 21.2434C16.4412 22.7751 14.0704 23.6142 11.633 23.6142C9.19568 23.6142 6.83823 22.7751 4.93359 21.2434C5.79933 20.3644 6.66508 19.4987 7.53078 18.6196C10.2612 20.3244 12.9916 20.2978 15.7086 18.6329C16.5877 19.4853 17.4667 20.3644 18.3325 21.2434Z" fill="white"/>
<path d="M4.9051 7.64468C3.28019 10.4017 3.28019 13.1587 4.9051 15.9158L2.3079 18.5263C-0.688869 14.9035 -0.848694 8.94993 2.3079 5.03418C3.17364 5.91323 4.03937 6.77893 4.9051 7.64468Z" fill="white"/>
<path d="M78.0024 17.5142H76.7639C76.6839 17.0614 76.7504 16.6085 76.6704 16.129C76.5639 16.2223 76.4839 16.3288 76.4044 16.4487C75.8314 17.1413 75.0189 17.5675 74.1399 17.6474C73.4339 17.7406 72.7149 17.6474 72.0624 17.3943C71.4229 17.1546 70.8504 16.755 70.4239 16.2223C69.9979 15.6895 69.7179 15.0502 69.6384 14.3709C69.4784 13.5452 69.5314 12.6927 69.7714 11.8803C69.9714 11.1877 70.3574 10.5617 70.9034 10.0822C71.4494 9.60272 72.1289 9.30972 72.8479 9.21647C73.6869 9.05667 74.5529 9.16322 75.3119 9.52282C75.7384 9.72262 76.1244 10.0289 76.4174 10.3886C76.5109 10.5084 76.5909 10.6283 76.6574 10.7748V5.88672H78.0024V17.5142ZM73.7404 16.3688C74.4599 16.3821 75.1524 16.129 75.6849 15.6362C76.2179 15.1568 76.5374 14.4775 76.5909 13.7583C76.6704 13.1855 76.5909 12.5995 76.3374 12.0801C76.0844 11.5606 75.6849 11.1211 75.1924 10.8281C74.8194 10.615 74.4064 10.4951 73.9804 10.4552C73.5539 10.4152 73.1279 10.4818 72.7284 10.6283C72.3284 10.7615 71.9689 10.9746 71.6759 11.2809C71.3829 11.5873 71.1699 11.9469 71.0634 12.3598C70.8634 13.0257 70.8504 13.7449 71.0499 14.4242C71.2099 14.9969 71.5694 15.5164 72.0624 15.8627C72.5419 16.2223 73.1409 16.3954 73.7404 16.3688Z" fill="white"/>
<path d="M37.3489 13.9713H30.4896C30.5296 14.4641 30.7027 14.9169 30.9958 15.3165C31.2888 15.7027 31.6883 16.0091 32.1412 16.1689C32.594 16.3554 33.0868 16.4353 33.5796 16.4086C34.2855 16.382 34.9648 16.1556 35.5508 15.7693C35.7107 15.6628 35.8572 15.5296 35.9771 15.3698C36.2834 15.6495 36.5764 15.9158 36.8827 16.2089C36.6963 16.4486 36.4832 16.6484 36.2434 16.8082C35.431 17.3809 34.4587 17.674 33.4598 17.6873C32.8871 17.7139 32.301 17.6207 31.7549 17.4209C31.0624 17.1812 30.4497 16.7549 29.9835 16.1822C29.5174 15.6095 29.2377 14.9169 29.1577 14.1844C28.9979 13.3186 29.0911 12.413 29.4374 11.6005C29.7038 10.9345 30.1433 10.3618 30.7161 9.93561C31.2888 9.50941 31.968 9.24301 32.6739 9.16311C33.3532 9.06986 34.0458 9.12316 34.6984 9.30961C35.3644 9.48276 35.9637 9.84236 36.4166 10.3485C36.8827 10.8546 37.1758 11.4939 37.2823 12.1599C37.4288 12.7726 37.4421 13.3719 37.3489 13.9713ZM36.057 12.7859C36.057 12.6927 36.0703 12.6261 36.057 12.5461C36.017 12.1066 35.8705 11.6937 35.6041 11.3474C35.3377 11.0011 34.9781 10.7348 34.5786 10.5883C34.1257 10.4284 33.6596 10.3618 33.1801 10.3885C32.7539 10.3885 32.3277 10.495 31.9547 10.6948C31.5685 10.8946 31.2488 11.1743 30.9958 11.5206C30.7294 11.8802 30.5695 12.3064 30.5163 12.7593C32.3543 12.7859 34.1923 12.7859 36.057 12.7859Z" fill="white"/>
<path d="M53.932 17.6872C53.3725 17.7005 52.8135 17.6073 52.2805 17.3942C51.761 17.1811 51.2815 16.8748 50.882 16.4752C50.2295 15.8092 49.8298 14.9302 49.7499 13.9979C49.63 13.0922 49.7898 12.1865 50.1895 11.374C50.4825 10.7747 50.922 10.2552 51.468 9.86895C52.014 9.4827 52.6535 9.24295 53.3195 9.17635C54.092 9.0565 54.891 9.1497 55.61 9.44275C56.276 9.6958 56.862 10.1354 57.2885 10.6948C57.728 11.2541 57.9945 11.9334 58.0745 12.6393C58.221 13.4118 58.154 14.211 57.901 14.9435C57.6745 15.6361 57.262 16.2621 56.7025 16.7282C56.143 17.1944 55.4635 17.5007 54.7445 17.6073C54.478 17.6739 54.1985 17.6872 53.932 17.6872ZM56.7955 13.4385C56.809 13.0655 56.7425 12.6926 56.6225 12.333C56.4625 11.8801 56.2095 11.4806 55.85 11.1476C55.4905 10.8146 55.0775 10.5882 54.6115 10.4816C54.145 10.3618 53.6655 10.3618 53.1995 10.4816C52.7335 10.6015 52.3205 10.8413 51.961 11.1609C51.5215 11.6271 51.2285 12.1998 51.1215 12.8258C51.002 13.4518 51.0685 14.0911 51.308 14.6904C52.041 16.4885 54.1985 16.7815 55.5035 15.9291C55.9165 15.6627 56.2495 15.2898 56.476 14.8503C56.7025 14.4107 56.809 13.9313 56.7955 13.4385Z" fill="white"/>
<path d="M67.6762 17.5273H66.3712C66.3312 17.4474 66.3312 17.3542 66.3442 17.261V12.9723C66.3442 12.6526 66.2912 12.3196 66.1977 12.0133C66.0912 11.6537 65.8917 11.3207 65.6117 11.0676C65.3322 10.8146 64.9857 10.6414 64.6132 10.5615C64.1732 10.4283 63.7207 10.4283 63.2812 10.5482C62.8417 10.6681 62.4422 10.9078 62.1357 11.2408C61.6697 11.7203 61.4162 12.3596 61.4297 13.0255C61.4162 14.4373 61.4297 15.8358 61.4297 17.2477C61.4432 17.3409 61.4297 17.4341 61.4162 17.5273H60.0977V9.32286H61.3367C61.3632 9.73571 61.3767 10.1353 61.4032 10.5216C61.4697 10.5349 61.4832 10.4816 61.5097 10.455C61.8827 9.98881 62.3622 9.62916 62.9082 9.41606C63.4542 9.20296 64.0537 9.13636 64.6397 9.22961C65.0922 9.26956 65.5322 9.40276 65.9317 9.61586C66.3312 9.82896 66.6772 10.1353 66.9572 10.4949C67.3967 11.081 67.6497 11.7736 67.6897 12.4928C67.7032 12.7192 67.7162 12.9323 67.7162 13.1454V17.2477C67.7162 17.3409 67.7032 17.4341 67.6762 17.5273Z" fill="white"/>
<path d="M43.2399 9.33686H44.5052C44.5318 9.69646 44.5718 10.0694 44.6118 10.469C44.8515 10.0561 45.2111 9.7231 45.624 9.49665C46.0502 9.27025 46.5164 9.15036 46.9959 9.17701C47.7151 9.15036 48.4077 9.36345 48.9804 9.7897C48.7806 10.176 48.5808 10.5622 48.381 10.9351C48.2878 10.9351 48.1946 10.8952 48.128 10.8286C47.6085 10.5356 46.9825 10.4423 46.3965 10.5888C45.8105 10.722 45.3043 11.0816 44.9581 11.5744C44.6917 11.9873 44.5585 12.4668 44.5718 12.9596V17.2483C44.5851 17.3416 44.5718 17.4348 44.5452 17.528H43.2266V9.33686H43.2399Z" fill="white"/>
<path d="M40.6796 17.5271H39.3477V5.92627H40.6796V17.5271Z" fill="white"/>
<path d="M22.8994 21.2437C22.8994 21.6033 22.7795 21.963 22.5797 22.2693C22.3799 22.5756 22.0869 22.802 21.7406 22.9352C21.4076 23.0684 21.0347 23.1084 20.6751 23.0285C20.3155 22.9486 19.9958 22.7754 19.7428 22.509C19.4897 22.2426 19.3166 21.923 19.25 21.5634C19.1834 21.2038 19.2233 20.8308 19.3698 20.4979C19.5163 20.1649 19.7561 19.8719 20.0491 19.6721C20.3554 19.4723 20.7151 19.3657 21.0747 19.3657C21.3144 19.3657 21.5541 19.419 21.7806 19.5123C22.007 19.6055 22.2068 19.7387 22.3799 19.9251C22.5531 20.0983 22.6863 20.2981 22.7795 20.5245C22.8594 20.7642 22.9127 21.004 22.8994 21.2437Z" fill="white"/>
<path d="M2.29431 23.0943C1.92138 23.1077 1.56177 23.0011 1.25543 22.8013C0.949095 22.6015 0.696035 22.3085 0.549525 21.9756C0.403017 21.6426 0.363059 21.2563 0.429654 20.8967C0.496249 20.5371 0.669395 20.2041 0.935775 19.9378C1.20216 19.6714 1.52181 19.4982 1.89474 19.4183C2.25436 19.3517 2.62729 19.3784 2.97358 19.5249C3.31987 19.6714 3.59957 19.9111 3.81267 20.2174C4.01246 20.5238 4.11901 20.8834 4.11901 21.2563C4.11901 21.4961 4.07906 21.7358 3.98582 21.9622C3.89259 22.1887 3.7594 22.3884 3.59957 22.5616C3.42642 22.7347 3.22664 22.8679 3.01354 22.9612C2.7738 23.0411 2.53405 23.081 2.29431 23.0943Z" fill="white"/>
<path d="M22.8987 2.27676C22.912 2.51651 22.8721 2.75625 22.7788 2.99599C22.6989 3.22241 22.5657 3.43551 22.3926 3.60866C22.2194 3.78181 22.0196 3.92832 21.7932 4.02155C21.5668 4.11478 21.3271 4.16806 21.0873 4.16806C20.8476 4.16806 20.6078 4.1281 20.3814 4.02155C20.155 3.92832 19.9552 3.79513 19.7821 3.62198C19.6089 3.44883 19.4757 3.23573 19.3958 3.00931C19.3026 2.78288 19.2626 2.54314 19.2759 2.3034C19.2626 2.06366 19.3026 1.82392 19.3958 1.58418C19.4757 1.35775 19.6089 1.14465 19.7821 0.971505C19.9552 0.79836 20.155 0.65185 20.3814 0.55862C20.6078 0.465386 20.8476 0.412109 21.0873 0.412109C21.3271 0.412109 21.5668 0.452067 21.7932 0.55862C22.0196 0.65185 22.2194 0.78504 22.3926 0.95819C22.5657 1.13133 22.6989 1.34443 22.7788 1.57086C22.8721 1.78396 22.912 2.02371 22.8987 2.27676Z" fill="white"/>
<path d="M4.10582 2.26407C4.10582 2.62369 3.99927 2.98329 3.78616 3.27631C3.58638 3.58265 3.29337 3.80908 2.96039 3.94227C2.62742 4.07545 2.25449 4.11541 1.89487 4.04881C1.53526 3.98222 1.2156 3.79576 0.96254 3.5427C0.70948 3.28963 0.536335 2.95666 0.456422 2.59704C0.389828 2.23743 0.416464 1.87782 0.56297 1.53153C0.70948 1.18524 0.935905 0.905535 1.24224 0.70575C1.54858 0.505965 1.89487 0.399414 2.25449 0.399414C2.49423 0.399414 2.73397 0.439371 2.96039 0.532605C3.18681 0.625835 3.3866 0.759025 3.55975 0.932175C3.73289 1.10532 3.86608 1.30511 3.95931 1.53153C4.06587 1.78459 4.10582 2.02433 4.10582 2.26407Z" fill="white"/>
<path d="M9.68784 9.3493C9.68784 9.46915 9.63454 9.589 9.54134 9.68225C9.44809 9.76215 9.32819 9.81545 9.20834 9.81545C9.08849 9.81545 8.96859 9.76215 8.87539 9.68225C8.78214 9.589 8.74219 9.46915 8.74219 9.3493C8.75549 9.2294 8.80879 9.10955 8.88869 9.02965C8.98194 8.9497 9.10179 8.89645 9.22164 8.90975C9.34154 8.90975 9.46139 8.9497 9.55464 9.04295C9.63454 9.10955 9.68784 9.2294 9.68784 9.3493Z" fill="white"/>
<path d="M5.57251 5.18018C5.63911 5.18018 5.69236 5.19348 5.74566 5.20678C5.79891 5.23343 5.85221 5.26008 5.89216 5.30003C5.93211 5.33998 5.97206 5.39328 5.99871 5.44653C6.02536 5.49983 6.03866 5.56643 6.03866 5.61968C6.03866 5.73953 5.98541 5.85943 5.89216 5.93933C5.79891 6.01923 5.67906 6.07253 5.55921 6.05923C5.49261 6.05923 5.43931 6.05923 5.37271 6.03258C5.31946 6.00593 5.26616 5.97928 5.21291 5.93933C5.17296 5.89938 5.13296 5.84608 5.10636 5.79283C5.07971 5.73953 5.06641 5.67298 5.06641 5.60638C5.06641 5.53978 5.07971 5.48648 5.10636 5.41988C5.13296 5.36663 5.17296 5.31333 5.21291 5.27338C5.25286 5.23343 5.31946 5.19348 5.37271 5.18018C5.43931 5.18018 5.50591 5.18018 5.57251 5.18018Z" fill="white"/>
<path d="M9.22164 14.6905C9.10179 14.6905 8.98194 14.6372 8.88869 14.5573C8.79544 14.4774 8.74219 14.3575 8.74219 14.2376C8.74219 14.1178 8.79544 13.9979 8.88869 13.9046C8.98194 13.8247 9.10179 13.7715 9.22164 13.7715C9.28824 13.7715 9.34154 13.7848 9.39479 13.7981C9.44809 13.8247 9.50134 13.8514 9.54134 13.8913C9.58129 13.9313 9.62124 13.9846 9.64789 14.0378C9.67449 14.0911 9.68784 14.1577 9.68784 14.211C9.68784 14.2776 9.67449 14.3309 9.64789 14.3841C9.62124 14.4374 9.59459 14.4907 9.54134 14.5306C9.50134 14.5706 9.44809 14.6106 9.38149 14.6239C9.34154 14.6905 9.28824 14.6905 9.22164 14.6905Z" fill="white"/>
<path d="M5.07812 17.9402C5.09142 17.8203 5.14472 17.7004 5.22462 17.6205C5.31787 17.5406 5.42442 17.4873 5.54427 17.4873C5.61087 17.4873 5.66417 17.5006 5.73077 17.514C5.78402 17.5406 5.83732 17.5672 5.89057 17.6072C5.93052 17.6472 5.97047 17.7004 5.99712 17.7537C6.02377 17.807 6.03708 17.8736 6.03708 17.9402C6.03708 18.0068 6.02377 18.06 5.99712 18.1133C5.97047 18.1666 5.93052 18.2199 5.89057 18.2598C5.85062 18.2998 5.79737 18.3397 5.73077 18.3531C5.67747 18.3797 5.61087 18.3797 5.54427 18.3797C5.42442 18.3797 5.30452 18.3264 5.22462 18.2465C5.13142 18.1799 5.07812 18.06 5.07812 17.9402Z" fill="white"/>
<path d="M12.8841 13.4514C12.7643 13.4514 12.6444 13.3982 12.5645 13.3182C12.4712 13.2383 12.4313 13.1185 12.418 12.9986C12.418 12.932 12.4313 12.8787 12.4579 12.8254C12.4846 12.7722 12.5245 12.7189 12.5645 12.6789C12.6178 12.639 12.671 12.6123 12.7243 12.5857C12.7776 12.5724 12.8442 12.5591 12.9108 12.5591C12.9774 12.5591 13.0306 12.5724 13.0839 12.5857C13.1372 12.6123 13.1905 12.639 13.2304 12.6922C13.2704 12.7322 13.3103 12.7855 13.3237 12.8388C13.3503 12.892 13.3503 12.9586 13.3503 13.0119C13.337 13.1318 13.2837 13.2516 13.2038 13.3316C13.1239 13.4115 13.004 13.4514 12.8841 13.4514Z" fill="white"/>
<path d="M19.0217 18.726C19.1016 18.7393 19.1949 18.7793 19.2615 18.8326C19.3281 18.8858 19.3813 18.9658 19.3947 19.0457C19.4213 19.1256 19.4213 19.2188 19.3947 19.2987C19.368 19.3786 19.3281 19.4586 19.2615 19.5118C19.1949 19.5651 19.115 19.605 19.0217 19.6183C18.9418 19.6317 18.8486 19.6183 18.7687 19.5784C18.6887 19.5384 18.6222 19.4852 18.5822 19.4053C18.5422 19.3254 18.5156 19.2455 18.5156 19.1522C18.5156 19.0856 18.5422 19.0323 18.5689 18.979C18.5955 18.9257 18.6355 18.8725 18.6887 18.8326C18.742 18.7926 18.7953 18.7659 18.8486 18.7393C18.9019 18.7126 18.9684 18.726 19.0217 18.726Z" fill="white"/>
<path d="M15.3207 8.56329C15.2541 8.56329 15.2008 8.54994 15.1342 8.53664C15.0809 8.50999 15.0277 8.48334 14.9744 8.44339C14.9344 8.40344 14.8945 8.35019 14.8678 8.29689C14.8412 8.24364 14.8279 8.17704 14.8412 8.11044C14.8412 8.04384 14.8545 7.99054 14.8811 7.93729C14.9078 7.88399 14.9477 7.83074 14.9877 7.79079C15.0277 7.75079 15.0942 7.72419 15.1475 7.69754C15.2008 7.68424 15.2674 7.67089 15.334 7.68424C15.4006 7.68424 15.4539 7.69754 15.5071 7.71084C15.5604 7.73749 15.6137 7.76414 15.6536 7.80409C15.6936 7.84404 15.7336 7.89734 15.7602 7.95059C15.7868 8.00389 15.8002 8.07049 15.7868 8.12374C15.7868 8.19034 15.7735 8.24364 15.7469 8.29689C15.7202 8.35019 15.6803 8.40344 15.6403 8.44339C15.6004 8.48334 15.5471 8.50999 15.4805 8.53664C15.4539 8.56329 15.3873 8.56329 15.3207 8.56329Z" fill="white"/>
<path d="M18.9834 3.95557C19.1033 3.95557 19.2231 3.99553 19.3164 4.07544C19.4096 4.15535 19.4629 4.27522 19.4762 4.39509C19.4762 4.46169 19.4629 4.51497 19.4362 4.58156C19.4096 4.63484 19.3696 4.68811 19.3297 4.72807C19.2897 4.76802 19.2364 4.80798 19.1699 4.8213C19.1166 4.84794 19.05 4.84794 18.9834 4.84794C18.8635 4.84794 18.7436 4.80798 18.6504 4.71475C18.5572 4.63484 18.5039 4.51496 18.5039 4.39509C18.5039 4.3285 18.5172 4.27522 18.5439 4.22195C18.5705 4.16867 18.5971 4.1154 18.6504 4.07544C18.6904 4.03548 18.7436 3.99553 18.7969 3.98221C18.8635 3.96889 18.9301 3.95557 18.9834 3.95557Z" fill="white"/>
<path d="M18.2487 5.63323C18.2487 5.72643 18.2221 5.80638 18.1821 5.88628C18.1288 5.96618 18.0622 6.01948 17.9823 6.05943C17.9024 6.09938 17.8092 6.09938 17.7293 6.08608C17.636 6.07273 17.5561 6.03278 17.5028 5.96618C17.4362 5.89958 17.3963 5.81968 17.383 5.73978C17.3696 5.64653 17.3696 5.56663 17.4096 5.48673C17.4362 5.40678 17.5028 5.34018 17.5694 5.28693C17.6493 5.23363 17.7293 5.20703 17.8225 5.20703C17.9424 5.20703 18.0489 5.24698 18.1421 5.34018C18.1954 5.39348 18.2487 5.51333 18.2487 5.63323Z" fill="white"/>
<path d="M16.5193 7.32562C16.3994 7.32562 16.2929 7.27237 16.1996 7.19242C16.1197 7.11252 16.0664 6.99267 16.0664 6.87277C16.0664 6.75292 16.1064 6.63307 16.1996 6.55312C16.2795 6.47322 16.3994 6.41992 16.5193 6.41992C16.6391 6.41992 16.7457 6.47322 16.8389 6.55312C16.9188 6.63307 16.9721 6.75292 16.9721 6.87277C16.9721 6.99267 16.9322 7.11252 16.8389 7.19242C16.759 7.27237 16.6391 7.32562 16.5193 7.32562Z" fill="white"/>
<path d="M14.5854 9.33599C14.5854 9.38929 14.5854 9.45588 14.5587 9.50913C14.5321 9.56243 14.5054 9.61568 14.4655 9.65563C14.4255 9.69558 14.3723 9.73559 14.319 9.76219C14.2657 9.78884 14.2124 9.80213 14.1458 9.80213C14.0792 9.80213 14.026 9.78883 13.9727 9.77553C13.9194 9.74888 13.8661 9.72223 13.8262 9.68228C13.7862 9.64233 13.7463 9.58903 13.7196 9.53578C13.693 9.48248 13.6797 9.41588 13.6797 9.36263C13.6797 9.24278 13.7329 9.13618 13.8129 9.04298C13.8928 8.96308 14.0126 8.90978 14.1192 8.89648C14.2391 8.89648 14.3456 8.94973 14.4388 9.02963C14.5321 9.10958 14.5854 9.21614 14.5854 9.33599Z" fill="white"/>
<path d="M17.7709 18.3931C17.651 18.3797 17.5445 18.3265 17.4645 18.2332C17.3846 18.14 17.3447 18.0201 17.358 17.9002C17.3713 17.7804 17.4246 17.6605 17.5178 17.5939C17.6111 17.514 17.7309 17.474 17.8508 17.4874C17.9707 17.5007 18.0772 17.554 18.1571 17.6472C18.237 17.7404 18.277 17.8603 18.2637 17.9668C18.2504 18.0867 18.1971 18.1933 18.1172 18.2732C18.0106 18.3664 17.8908 18.4064 17.7709 18.3931Z" fill="white"/>
<path d="M12.8552 11.0407C12.7353 11.0407 12.6288 10.9874 12.5355 10.9075C12.4556 10.8276 12.4023 10.7077 12.4023 10.5878C12.4023 10.5212 12.4157 10.468 12.429 10.4147C12.4556 10.3614 12.4823 10.3081 12.5222 10.2682C12.5622 10.2282 12.6154 10.1883 12.6687 10.175C12.722 10.1483 12.7886 10.135 12.8419 10.1483C12.9085 10.1483 12.9617 10.1616 13.015 10.1883C13.0683 10.2149 13.1216 10.2416 13.1615 10.2948C13.2015 10.3348 13.2414 10.3881 13.2548 10.4413C13.2814 10.4946 13.2814 10.5612 13.2814 10.6145C13.2814 10.7344 13.2281 10.8409 13.1482 10.9208C13.0816 10.9874 12.9751 11.0407 12.8552 11.0407Z" fill="white"/>
<path d="M10.9119 10.5881C10.9119 10.708 10.8586 10.8145 10.7787 10.9078C10.6988 10.9877 10.5789 11.041 10.4591 11.041C10.3392 11.041 10.2326 10.9877 10.1527 10.9078C10.0728 10.8279 10.0195 10.708 10.0195 10.5881C10.0195 10.4683 10.0595 10.3617 10.1527 10.2685C10.2326 10.1886 10.3525 10.1353 10.4591 10.1353C10.5123 10.1353 10.5789 10.1486 10.6322 10.1752C10.6855 10.2019 10.7388 10.2285 10.7787 10.2685C10.8187 10.3084 10.8586 10.3617 10.8719 10.415C10.9119 10.4683 10.9119 10.5348 10.9119 10.5881Z" fill="white"/>
<path d="M14.5877 14.2513C14.5877 14.3179 14.5744 14.3712 14.5611 14.4245C14.5344 14.4778 14.5078 14.531 14.4545 14.571C14.4145 14.611 14.3613 14.6509 14.308 14.6642C14.2547 14.6909 14.1881 14.6909 14.1349 14.6909C14.0683 14.6909 14.015 14.6776 13.9617 14.6509C13.9084 14.6243 13.8552 14.5843 13.8152 14.5444C13.7752 14.5044 13.7486 14.4511 13.722 14.3845C13.7086 14.3313 13.6953 14.2647 13.7086 14.2114C13.7086 14.0915 13.7619 13.985 13.8552 13.9051C13.9484 13.8251 14.0549 13.7852 14.1748 13.7852C14.2947 13.7852 14.4012 13.8385 14.4811 13.9317C14.5477 14.0116 14.5877 14.1315 14.5877 14.2513Z" fill="white"/>
<path d="M10.4715 12.5459C10.5914 12.5459 10.6979 12.5858 10.7911 12.6791C10.8711 12.759 10.9243 12.8788 10.9243 12.9854C10.9243 13.1053 10.8844 13.2118 10.8045 13.3051C10.7245 13.385 10.618 13.4382 10.4981 13.4516C10.4315 13.4516 10.3783 13.4382 10.325 13.4249C10.2717 13.3983 10.2184 13.3716 10.1785 13.3317C10.1385 13.2917 10.0986 13.2385 10.0852 13.1852C10.0586 13.1319 10.0586 13.0653 10.0586 13.012C10.0586 12.9588 10.0719 12.8922 10.0852 12.8389C10.1119 12.7856 10.1385 12.7323 10.1785 12.6924C10.2184 12.6524 10.2717 12.6125 10.325 12.5991C10.3516 12.5592 10.4182 12.5459 10.4715 12.5459Z" fill="white"/>
<path d="M16.5312 17.1548C16.4379 17.1548 16.358 17.1282 16.2781 17.0882C16.1982 17.035 16.1449 16.9684 16.1049 16.8885C16.065 16.8086 16.065 16.7154 16.0783 16.6221C16.0916 16.5289 16.1316 16.449 16.1982 16.3824C16.2648 16.3158 16.3447 16.2758 16.4246 16.2492C16.5178 16.2359 16.5977 16.2359 16.691 16.2758C16.7709 16.3158 16.8508 16.369 16.8908 16.4356C16.944 16.5155 16.9707 16.5954 16.9707 16.6887C16.9707 16.8086 16.9307 16.9284 16.8375 17.0083C16.7576 17.1016 16.651 17.1548 16.5312 17.1548Z" fill="white"/>
<path d="M7.25178 16.7412C7.25178 16.7945 7.23847 16.8611 7.21182 16.9144C7.18517 16.9676 7.15853 17.0076 7.10528 17.0476C7.06533 17.0875 7.01203 17.1142 6.95878 17.1408C6.90548 17.1541 6.85222 17.1674 6.78562 17.1674C6.66572 17.1541 6.55918 17.1008 6.47928 17.0209C6.39938 16.9277 6.35938 16.8211 6.35938 16.7013C6.35938 16.6347 6.37272 16.5814 6.39937 16.5281C6.42597 16.4748 6.46593 16.4216 6.50593 16.3816C6.54588 16.3417 6.59913 16.315 6.66573 16.2884C6.71903 16.2751 6.78563 16.2617 6.83888 16.2617C6.89218 16.2617 6.95877 16.2884 7.01202 16.315C7.06532 16.3417 7.10528 16.3816 7.14523 16.4216C7.18518 16.4615 7.21182 16.5148 7.22512 16.5681C7.25177 16.6214 7.26508 16.688 7.25178 16.7412Z" fill="white"/>
<path d="M6.79729 7.32562C6.67744 7.32562 6.57089 7.27237 6.49099 7.17912C6.41104 7.09922 6.37109 6.97932 6.37109 6.85947C6.37109 6.79287 6.38444 6.73962 6.39774 6.68632C6.42439 6.63307 6.45104 6.57977 6.49099 6.53982C6.53094 6.49987 6.58419 6.45992 6.63749 6.44657C6.69074 6.41992 6.75734 6.41992 6.81064 6.41992C6.86389 6.41992 6.93049 6.43327 6.98379 6.45992C7.03704 6.48652 7.09034 6.52647 7.13029 6.56647C7.17024 6.60642 7.19689 6.65967 7.22354 6.72627C7.23684 6.77957 7.25014 6.84617 7.25014 6.89942C7.25014 7.01932 7.19689 7.12587 7.10364 7.20577C7.02374 7.28567 6.91719 7.32562 6.79729 7.32562Z" fill="white"/>
<path d="M8.04818 15.0365C8.10148 15.0365 8.16808 15.0498 8.22133 15.0765C8.27463 15.1031 8.32788 15.1297 8.36783 15.1697C8.40783 15.2096 8.43443 15.2629 8.46108 15.3162C8.48773 15.3695 8.48773 15.4228 8.48773 15.4893C8.48773 15.6092 8.43443 15.7158 8.34123 15.7957C8.26128 15.8756 8.14143 15.9156 8.02158 15.9156C7.90168 15.9156 7.79513 15.8623 7.71523 15.7824C7.63533 15.7024 7.58203 15.5826 7.58203 15.476C7.58203 15.4094 7.59533 15.3562 7.62198 15.3029C7.64863 15.2496 7.67528 15.1963 7.72853 15.1564C7.76848 15.1164 7.82178 15.0898 7.88838 15.0631C7.92833 15.0365 7.98158 15.0232 8.04818 15.0365Z" fill="white"/>
<path d="M15.3474 15.0361C15.414 15.0361 15.4672 15.0361 15.5205 15.0627C15.5738 15.0894 15.6271 15.116 15.6804 15.156C15.7203 15.1959 15.7603 15.2492 15.7869 15.3025C15.8135 15.3558 15.8269 15.4224 15.8135 15.4756C15.8135 15.5955 15.7603 15.7021 15.667 15.782C15.5871 15.8619 15.4672 15.9018 15.3474 15.9018C15.2275 15.9018 15.121 15.8619 15.0277 15.7687C14.9478 15.6887 14.8945 15.5689 14.8945 15.449C14.8945 15.3957 14.9079 15.3291 14.9212 15.2759C14.9478 15.2226 14.9744 15.1693 15.0144 15.1293C15.0544 15.0894 15.1076 15.0494 15.1609 15.0361C15.2275 15.0494 15.2941 15.0361 15.3474 15.0361Z" fill="white"/>
<path d="M4.35678 4.84816C4.23691 4.84816 4.13037 4.8082 4.03714 4.72829C3.95722 4.64837 3.90394 4.54182 3.89062 4.42195C3.89062 4.35536 3.90394 4.30208 3.93058 4.2488C3.95722 4.19553 3.98386 4.14225 4.03714 4.10229C4.07709 4.06234 4.13036 4.02238 4.18364 4.00906C4.23692 3.98242 4.30351 3.98242 4.35678 3.98242C4.41006 3.98242 4.47666 3.99574 4.52993 4.00906C4.58321 4.02238 4.63648 4.06234 4.67645 4.10229C4.7164 4.14225 4.75636 4.19553 4.76967 4.2488C4.79631 4.30208 4.79632 4.35536 4.79632 4.42195C4.79632 4.47523 4.78299 4.54182 4.76967 4.5951C4.74304 4.64837 4.7164 4.70165 4.67645 4.74161C4.63648 4.78156 4.58321 4.82152 4.52993 4.83484C4.47666 4.83484 4.42338 4.84816 4.35678 4.84816Z" fill="white"/>
<path d="M4.3614 18.7388C4.41468 18.7388 4.48128 18.7388 4.53455 18.7654C4.58783 18.7921 4.6411 18.8187 4.68106 18.8587C4.72101 18.8986 4.76098 18.9519 4.78761 19.0052C4.81425 19.0585 4.82757 19.1117 4.82757 19.1783C4.82757 19.2982 4.77429 19.4047 4.69438 19.4847C4.61446 19.5646 4.4946 19.6178 4.38804 19.6178C4.26817 19.6178 4.16162 19.5779 4.06839 19.498C3.98847 19.4181 3.93519 19.3115 3.92188 19.1916C3.92188 19.1384 3.93519 19.0718 3.94851 19.0185C3.97515 18.9652 4.00179 18.9119 4.04175 18.872C4.08171 18.832 4.13498 18.7921 4.18825 18.7787C4.24153 18.7521 4.29481 18.7388 4.3614 18.7388Z" fill="white"/>
<path d="M11.6967 12.2665C11.6434 12.2665 11.5768 12.2665 11.5235 12.2399C11.4702 12.2265 11.417 12.1866 11.377 12.1466C11.337 12.1067 11.2971 12.0534 11.2705 12.0001C11.2438 11.9468 11.2305 11.8936 11.2305 11.827C11.2305 11.7737 11.2438 11.7071 11.2571 11.6538C11.2838 11.6006 11.3104 11.5473 11.3504 11.5073C11.3903 11.4674 11.4436 11.4274 11.4969 11.4008C11.5501 11.3741 11.6034 11.3608 11.67 11.3608C11.7366 11.3608 11.7899 11.3608 11.8432 11.3875C11.8964 11.4141 11.9497 11.4407 12.003 11.4807C12.043 11.5206 12.0829 11.5739 12.1095 11.6272C12.1362 11.6805 12.1495 11.7471 12.1495 11.8003C12.1495 11.8536 12.1362 11.9202 12.1229 11.9735C12.0962 12.0268 12.0696 12.08 12.0296 12.12C11.9897 12.16 11.9364 12.1999 11.8831 12.2132C11.8165 12.2532 11.7633 12.2665 11.6967 12.2665Z" fill="white"/>
<path d="M8.02158 8.55044C7.96828 8.55044 7.90168 8.53709 7.84843 8.52379C7.79513 8.49714 7.74188 8.47054 7.70188 8.43054C7.66193 8.39059 7.62198 8.33734 7.60868 8.28404C7.58203 8.23079 7.58203 8.16419 7.58203 8.11089C7.58203 8.04429 7.59533 7.99104 7.62198 7.93774C7.64863 7.88449 7.67528 7.83119 7.72853 7.79124C7.76848 7.75129 7.82178 7.71134 7.87503 7.69804C7.92833 7.67139 7.99493 7.67139 8.04818 7.67139C8.10148 7.67139 8.16808 7.68469 8.22133 7.71134C8.27463 7.73799 8.32788 7.76459 8.36783 7.81789C8.40783 7.85784 8.43443 7.91114 8.46108 7.96439C8.48773 8.01769 8.48773 8.08429 8.48773 8.13754C8.48773 8.19084 8.47443 8.25739 8.46108 8.31069C8.43443 8.36394 8.40783 8.41724 8.35453 8.45719C8.31458 8.49714 8.26128 8.52379 8.20803 8.55044C8.12813 8.55044 8.07483 8.56374 8.02158 8.55044Z" fill="white"/>
</g>
<defs>
<clipPath id="clip0_303_678">
<rect width="78" height="24" fill="white"/>
</clipPath>
</defs>
</svg>
