<svg width="90" height="23" viewBox="0 0 90 23" fill="none" xmlns="http://www.w3.org/2000/svg">
<g clip-path="url(#clip0_303_652)">
<path d="M24.9241 12.937C24.8088 11.5763 23.757 10.3305 22.3088 10.3305C20.8571 10.3305 19.8341 11.5763 19.69 12.937H24.9241ZM25.5149 13.1955C25.5113 13.3571 25.378 13.4863 25.2159 13.4863H19.69C19.8304 14.8471 20.8571 16.0929 22.3088 16.0929C23.2995 16.0929 24.0344 15.7195 24.5855 14.9296C24.6359 14.8435 24.726 14.7932 24.8269 14.7896C24.9746 14.786 25.0971 14.9009 25.1006 15.0481V15.0625C25.1006 15.1128 25.0862 15.163 25.0574 15.2025C24.4991 16.1647 23.3895 16.6386 22.3088 16.6386C20.4501 16.6386 19.1172 14.9763 19.1172 13.2099C19.1172 11.4399 20.4428 9.78113 22.3088 9.78113C24.1748 9.78113 25.5077 11.4255 25.5149 13.1955Z" fill="white"/>
<path d="M32.232 9.91363C32.3833 9.9172 32.5022 10.0393 32.5058 10.1865C32.5094 10.3337 32.3941 10.4557 32.2464 10.4594H30.7479V16.2649C30.7479 16.4157 30.6254 16.5378 30.4741 16.5378C30.3228 16.5341 30.2039 16.4121 30.2003 16.2649V10.4629H28.7738C28.6261 10.4666 28.5036 10.3517 28.5 10.2045V10.1901C28.5 10.0393 28.6225 9.9172 28.7738 9.9172H30.2003V7.79896C30.2003 7.65532 30.3084 7.52968 30.4488 7.50812C30.6002 7.48656 30.7371 7.59431 30.7551 7.74151C30.7551 7.75583 30.7587 7.76664 30.7551 7.78102V9.9172L32.232 9.91363Z" fill="white"/>
<path d="M41.2749 12.7218V16.2368C41.2713 16.3875 41.1489 16.506 41.0012 16.5096C40.8535 16.5132 40.731 16.3983 40.7274 16.2511V12.7218C40.7274 11.5334 40.0537 10.3558 38.7281 10.3558C37.0278 10.3558 36.293 11.835 36.3938 13.3537C36.3938 13.3968 36.4118 13.5692 36.4118 13.5943V16.226C36.4118 16.3696 36.3074 16.4952 36.1633 16.5168C36.012 16.5384 35.8751 16.4306 35.8571 16.2834C35.8571 16.2691 35.8534 16.2547 35.8571 16.2439V4.69034C35.8571 4.53955 35.9796 4.41748 36.1308 4.41748C36.2822 4.42107 36.401 4.54314 36.4046 4.69034V11.2175C36.8801 10.3702 37.7302 9.79573 38.7209 9.79573C40.3491 9.79935 41.2749 11.2175 41.2749 12.7218Z" fill="white"/>
<path d="M50.6002 12.9371C50.4849 11.5764 49.433 10.3306 47.9849 10.3306C46.5332 10.3306 45.5101 11.5764 45.3696 12.9371H50.6002ZM51.1982 13.1957C51.1946 13.3572 51.0613 13.4864 50.8992 13.4864H45.3732C45.5137 14.8472 46.5404 16.093 47.9885 16.093C48.9792 16.093 49.714 15.7196 50.2652 14.9297C50.3192 14.8436 50.4092 14.7934 50.5065 14.7897C50.6542 14.7862 50.7767 14.901 50.7803 15.0482V15.0626C50.7803 15.1129 50.7659 15.1631 50.737 15.2026C50.1787 16.1648 49.0692 16.6388 47.9885 16.6388C46.1297 16.6388 44.7969 14.9764 44.7969 13.21C44.7969 11.44 46.1225 9.78125 47.9885 9.78125C49.8401 9.78125 51.191 11.4256 51.1982 13.1957Z" fill="white"/>
<path d="M57.9938 10.1726C58.0047 10.3269 57.8893 10.4598 57.7341 10.4705C56.1096 10.7111 55.3748 12.0323 55.3748 13.569V16.2043C55.3748 16.3479 55.2703 16.4735 55.1262 16.4951C54.9749 16.5166 54.838 16.4089 54.82 16.2617C54.8164 16.2473 54.8164 16.233 54.8164 16.2222V10.2156C54.8164 10.072 54.9245 9.94638 55.065 9.92481C55.2127 9.90331 55.3495 10.011 55.3712 10.1582C55.3712 10.1726 55.3748 10.1833 55.3712 10.1977V11.4184C55.8287 10.6465 56.74 9.91406 57.6875 9.91406C57.8351 9.91406 57.9938 10.0146 57.9938 10.1726Z" fill="white"/>
<path d="M66.486 12.9371C66.3671 11.5764 65.3189 10.3306 63.8673 10.3306C62.4192 10.3306 61.3923 11.5764 61.2521 12.9371H66.486ZM67.0773 13.1957C67.0733 13.3572 66.94 13.4864 66.7779 13.4864H61.2521C61.3923 14.8472 62.4192 16.093 63.8673 16.093C64.8579 16.093 65.5929 15.7196 66.1439 14.9297C66.1946 14.8436 66.2846 14.7934 66.3856 14.7897C66.5333 14.7862 66.6556 14.901 66.6591 15.0482V15.0626C66.6591 15.1129 66.6446 15.1631 66.6158 15.2026C66.0573 16.1648 64.9479 16.6388 63.8673 16.6388C62.0085 16.6388 60.6758 14.9764 60.6758 13.21C60.6758 11.44 62.0016 9.78125 63.8673 9.78125C65.7371 9.78125 67.0698 11.4256 67.0773 13.1957Z" fill="white"/>
<path d="M76.0053 10.2371V16.2687C76.0019 16.4195 75.8796 16.538 75.7319 16.5416C75.5842 16.5452 75.4613 16.4303 75.4578 16.2831V15.1234C75.0003 16.0282 74.1898 16.6852 73.1594 16.6852C71.5169 16.6852 70.6094 15.267 70.6094 13.7627V10.2334C70.6094 10.0827 70.7317 9.96059 70.8828 9.96059C71.034 9.96416 71.1528 10.0862 71.1569 10.2334V13.7627C71.1569 14.9511 71.8301 16.1287 73.1559 16.1287C75.0148 16.1287 75.4544 14.3946 75.4544 12.4738V10.2227C75.4578 10.0683 75.5842 9.94622 75.7388 9.94978C75.7711 9.94978 75.8 9.95697 75.8288 9.96778C75.9367 10.0144 76.0053 10.1222 76.0053 10.2371Z" fill="white"/>
<path d="M90.0013 12.6966V16.2258C89.9973 16.3766 89.875 16.4951 89.7273 16.4987C89.5796 16.5023 89.4573 16.3874 89.4532 16.2402V12.6966C89.4532 11.5082 88.78 10.3449 87.4542 10.3449C85.7863 10.3449 85.1557 12.1221 85.1557 13.5008V16.2258C85.1523 16.3766 85.03 16.4951 84.8823 16.4987C84.7346 16.5023 84.6117 16.3874 84.6082 16.2402V12.6966C84.6082 11.5082 83.935 10.3449 82.6092 10.3449C80.9269 10.3449 80.2351 11.6662 80.2928 13.4254C80.2928 13.4685 80.3107 13.5403 80.2928 13.5654V16.215C80.2928 16.3587 80.1884 16.4843 80.0442 16.5059C79.893 16.5274 79.7563 16.4197 79.7378 16.2725C79.7344 16.2581 79.7344 16.2438 79.7344 16.233V10.2157C79.7344 10.072 79.8423 9.94639 79.983 9.92483C80.1342 9.90333 80.2709 10.011 80.2894 10.1582C80.2894 10.1726 80.2928 10.1834 80.2894 10.1977V11.203C80.7648 10.3557 81.6146 9.79919 82.6057 9.79919C83.7296 9.79919 84.6048 10.5136 84.9648 11.5513C85.4223 10.5208 86.3159 9.79919 87.4576 9.79919C89.0788 9.79919 90.0013 11.203 90.0013 12.6966Z" fill="white"/>
<path d="M0 11.7092L6.91644 0.263306V8.57843L0 11.7092Z" fill="white"/>
<path d="M6.91644 15.7877L0 11.7091L6.91644 8.57837V15.7877Z" fill="#E0E0E0"/>
<path d="M13.8377 11.7091L6.91406 8.57831V0.263184L13.8377 11.7091Z" fill="#E1E1E1"/>
<path d="M6.91406 15.788V8.57861L13.8377 11.7094L6.91406 15.788Z" fill="#CCCCCC"/>
<path d="M6.91644 22.7382L0 13.0228L6.91644 17.0907V22.7382Z" fill="white"/>
<path d="M6.91406 22.7383V17.0908L13.8377 13.0229L6.91406 22.7383Z" fill="#D4D4D4"/>
</g>
<defs>
<clipPath id="clip0_303_652">
<rect width="90" height="23" fill="white"/>
</clipPath>
</defs>
</svg>
