<svg width="78" height="25" viewBox="0 0 78 25" fill="none" xmlns="http://www.w3.org/2000/svg">
<g clip-path="url(#clip0_303_591)">
<path d="M1.79847 6.06396C2.46012 6.72561 3.12176 7.37566 3.79501 8.04891C2.90121 9.19806 2.55298 10.4982 2.85478 11.9375C3.05211 12.9242 3.56286 13.76 4.31736 14.4216C5.838 15.7565 8.2524 16.1047 10.2837 14.5261C11.0034 15.2574 11.7347 15.977 12.466 16.7199C13.2205 15.9538 13.9518 15.2225 14.6831 14.5029C16.935 16.2324 19.5003 15.6752 20.9513 14.1894C22.4719 12.634 22.8318 10.1151 21.2531 8.08371C21.9148 7.42211 22.5764 6.76046 23.2264 6.09881C25.7802 9.99901 26.0007 16.7548 21.2415 21.4559C16.6796 25.9714 9.0998 26.1919 4.25932 21.9086C-0.790066 17.4512 -0.999006 10.475 1.79847 6.06396Z" fill="white"/>
<path d="M2.63281 4.85642C7.45007 -1.62073 17.5488 -1.63234 22.4009 4.90285C19.1043 8.19945 15.8077 11.4961 12.5343 14.7695C9.24927 11.4728 5.95262 8.16465 2.63281 4.85642ZM12.5227 12.4711C15.0764 9.94065 17.6301 7.39855 20.1954 4.85642C16.0166 0.468672 8.71532 0.677614 4.86151 4.80999C7.40362 7.3521 9.95732 9.9058 12.5227 12.4711Z" fill="white"/>
<path d="M20.2535 9.04688C21.2402 10.3005 21.1009 12.181 19.9285 13.3301C18.7677 14.4561 16.8988 14.5606 15.7148 13.5855C17.2239 12.0649 18.7445 10.5559 20.2535 9.04688Z" fill="white"/>
<path d="M9.2862 13.5856C8.079 14.5607 6.19855 14.433 5.04935 13.2838C3.9002 12.123 3.77251 10.2542 4.74757 9.05859C6.2566 10.556 7.7656 12.065 9.2862 13.5856Z" fill="white"/>
<path d="M41.3358 8.82614C40.7438 9.32529 40.1518 9.83605 39.5366 10.3584C38.9446 9.84765 38.2945 9.4646 37.5052 9.32529C35.8221 9.04669 34.3595 10.0682 34.0925 11.7629C33.9532 12.6451 34.0345 13.4925 34.464 14.2818C35.3578 15.9417 37.2963 16.081 38.724 15.3613C38.8053 15.3265 38.8749 15.1988 38.8749 15.1176C38.8982 14.7693 38.8865 14.4211 38.8865 14.038C38.1785 14.038 37.5052 14.038 36.8087 14.038C36.8087 13.2951 36.8087 12.6103 36.8087 11.8674C38.3062 11.8674 39.8036 11.8674 41.3474 11.8674C41.359 11.9602 41.3822 12.0763 41.3822 12.1924C41.3822 13.6085 41.3938 15.0247 41.3706 16.4525C41.3706 16.6266 41.2894 16.8703 41.1501 16.9516C39.2116 18.2633 35.8569 18.6812 33.663 17.2302C32.3165 16.348 31.5736 15.0711 31.3879 13.5041C31.1674 11.6468 31.4924 9.92889 32.7924 8.48954C33.5934 7.60734 34.6149 7.11979 35.7757 6.94569C37.7258 6.65549 39.5018 7.0734 40.9876 8.4315C41.0804 8.51275 41.1617 8.60559 41.2429 8.69844C41.2777 8.71009 41.301 8.75649 41.3358 8.82614Z" fill="white"/>
<path d="M55.6133 18.1474C53.5588 18.1474 52.0843 17.1143 51.6553 15.2455C50.9818 12.3087 53.0363 9.96395 56.1823 10.3122C57.8538 10.4979 59.0838 11.3453 59.5483 13.0168C60.3143 15.8723 58.4458 18.2287 55.6133 18.1474ZM55.6248 12.4596C54.6613 12.4596 53.9768 13.1677 53.9768 14.1892C53.9648 15.2107 54.6963 16.0116 55.6248 16.0116C56.5533 16.0116 57.2848 15.2107 57.2848 14.1892C57.2618 13.1793 56.5883 12.4596 55.6248 12.4596Z" fill="white"/>
<path d="M45.3506 10.4632C45.3506 10.7302 45.3506 10.9739 45.3506 11.1132C45.9542 10.8462 46.5462 10.4632 47.1846 10.3471C48.8097 10.0453 50.191 10.823 50.284 12.6222C50.377 14.3982 50.307 16.1858 50.307 18.0315C49.6338 18.0315 48.9142 18.0431 48.1829 18.0083C48.1016 18.0083 47.9623 17.7645 47.9623 17.6252C47.9391 16.3599 47.9507 15.0947 47.9275 13.8294C47.9043 12.808 47.5793 12.4713 46.7435 12.4713C45.931 12.4713 45.3854 13.0169 45.3622 13.8991C45.339 15.1527 45.3622 16.3948 45.3506 17.6484C45.3506 17.7529 45.339 17.8574 45.3273 18.0199C44.5961 18.0199 43.8648 18.0315 43.1335 17.9966C43.0522 17.9966 42.9245 17.7413 42.9129 17.602C42.8897 16.5921 42.9013 15.5938 42.9013 14.584C42.9013 13.3767 42.9013 12.1695 42.9013 10.9739C42.9013 10.8114 42.9013 10.6489 42.9013 10.4632C43.7487 10.4632 44.5148 10.4632 45.3506 10.4632Z" fill="white"/>
<path d="M76.2069 12.8772C75.7309 12.645 75.3014 12.3897 74.8374 12.2272C74.5354 12.1227 74.0944 12.0414 73.9549 12.4361C73.8039 12.8656 74.2799 12.9236 74.5354 13.0513C75.0459 13.2835 75.5919 13.446 76.1024 13.6781C77.1239 14.1541 77.5649 14.8505 77.4954 15.814C77.4139 16.9167 76.8454 17.6712 75.7544 17.9614C74.1524 18.3909 72.6549 18.1471 71.2969 17.0328C71.6799 16.4872 72.0399 15.9649 72.3414 15.5354C73.0034 15.7791 73.6184 16.0229 74.2334 16.2435C74.3264 16.2783 74.4659 16.3015 74.5469 16.2551C74.7444 16.1506 74.9299 16.0113 75.1159 15.8836C74.9649 15.7327 74.8374 15.5354 74.6514 15.4541C74.1754 15.2452 73.6764 15.1175 73.2004 14.9086C71.9699 14.3746 71.4709 13.5388 71.6219 12.2852C71.7149 11.4727 72.2024 10.9271 72.9104 10.5788C74.2104 9.95201 76.1374 10.2538 77.2634 11.2521C76.9264 11.8209 76.5554 12.3664 76.2069 12.8772Z" fill="white"/>
<path d="M60.3594 17.0446C60.7424 16.4874 61.1139 15.9767 61.5084 15.4195C62.0539 15.8838 62.6229 16.2205 63.3309 16.2669C63.4819 16.2785 63.6444 16.2901 63.7719 16.2321C63.9229 16.1624 64.1319 16.0347 64.1434 15.9071C64.1664 15.791 63.9924 15.582 63.8534 15.524C63.4239 15.3383 62.9709 15.199 62.5299 15.0249C61.7404 14.7231 61.0324 14.2936 60.7539 13.4346C60.3014 12.0417 61.0789 10.7184 62.5529 10.3817C63.9229 10.0683 65.1764 10.3817 66.3374 11.2291C65.9544 11.7979 65.5944 12.3435 65.2114 12.9122C64.9329 12.7381 64.6889 12.5756 64.4334 12.4363C64.2479 12.3319 64.0504 12.239 63.8414 12.2042C63.5164 12.1577 63.0869 12.0417 62.9709 12.4595C62.8664 12.831 63.2844 12.9239 63.5514 13.0283C64.0389 13.2373 64.5499 13.4114 65.0254 13.6203C66.2329 14.1543 66.6159 14.8043 66.4884 16.058C66.3954 16.9866 65.6874 17.7759 64.6309 18.0081C63.0989 18.3563 61.6594 18.1241 60.3594 17.0446Z" fill="white"/>
<path d="M70.1577 17.9965C69.3682 17.9965 68.6137 17.9965 67.8242 17.9965C67.8242 15.4892 67.8242 12.9935 67.8242 10.4746C68.5907 10.4746 69.3567 10.4746 70.1577 10.4746C70.1577 12.9587 70.1577 15.4544 70.1577 17.9965Z" fill="white"/>
<path d="M68.9935 6.69043C69.876 6.69043 70.5145 7.28243 70.5145 8.10658C70.5025 8.90748 69.876 9.51108 69.0285 9.52273C68.158 9.53433 67.508 8.94233 67.508 8.11818C67.4965 7.27078 68.1 6.69043 68.9935 6.69043Z" fill="white"/>
</g>
<defs>
<clipPath id="clip0_303_591">
<rect width="77.5" height="25" fill="white"/>
</clipPath>
</defs>
</svg>
