<svg width="93" height="20" viewBox="0 0 93 20" fill="none" xmlns="http://www.w3.org/2000/svg">
<g clip-path="url(#clip0_303_668)">
<path d="M16.466 6.04941C16.0612 5.80539 15.5408 5.80539 15.0926 6.04941L11.9555 7.94441L9.816 9.17906L6.67894 11.074C6.27412 11.3181 5.7537 11.3181 5.30555 11.074L2.80457 9.59536C2.39979 9.3513 2.12511 8.89194 2.12511 8.40383V5.48956C2.12511 5.00145 2.37087 4.54207 2.80457 4.29801L5.26218 2.86242C5.66696 2.61837 6.1874 2.61837 6.63552 2.86242L9.09315 4.29801C9.49796 4.54207 9.77264 5.00145 9.77264 5.48956V7.38453L11.9122 6.10688V4.21188C11.9122 3.72378 11.6664 3.26438 11.2327 3.02034L6.67894 0.307062C6.27412 0.0630106 5.7537 0.0630106 5.30555 0.307062L0.679457 3.02034C0.231305 3.26438 0 3.72378 0 4.21188V9.66712C0 10.1552 0.245762 10.6146 0.679457 10.8587L5.30555 13.5719C5.71033 13.816 6.23076 13.816 6.67894 13.5719L9.816 11.7201L11.9555 10.4424L15.0926 8.59047C15.4974 8.34641 16.0179 8.34641 16.466 8.59047L18.9236 10.0261C19.3284 10.2701 19.603 10.7295 19.603 11.2176V14.1318C19.603 14.6199 19.3573 15.0794 18.9236 15.3234L16.466 16.8021C16.0612 17.0461 15.5408 17.0461 15.0926 16.8021L12.635 15.3665C12.2302 15.1224 11.9555 14.663 11.9555 14.1749V12.2799L9.816 13.5576V15.4526C9.816 15.9407 10.0618 16.4001 10.4954 16.6441L15.1216 19.3574C15.5263 19.6015 16.0468 19.6015 16.4949 19.3574L21.121 16.6441C21.5258 16.4001 21.8004 15.9407 21.8004 15.4526V9.99735C21.8004 9.50924 21.5547 9.04983 21.121 8.80577L16.466 6.04941Z" fill="white"/>
<path d="M30.3268 17.7927V13.2562C30.8183 13.8735 31.7146 14.2181 32.741 14.2181C35.3721 14.2181 37.1648 12.3375 37.1648 9.48065C37.1648 6.62376 35.5312 4.74316 32.9579 4.74316C31.7725 4.74316 30.8617 5.17384 30.3268 5.89165V4.88672H27.7969V17.7784H30.3268V17.7927ZM32.4375 12.036C31.0785 12.036 30.1822 11.0167 30.1822 9.48065C30.1822 7.93018 31.0785 6.91088 32.4375 6.91088C33.7675 6.91088 34.6782 7.93018 34.6782 9.48065C34.6638 11.0167 33.753 12.036 32.4375 12.036Z" fill="white"/>
<path d="M42.9054 14.2181C45.7245 14.2181 47.7484 12.2082 47.7484 9.48065C47.7484 6.753 45.7245 4.74316 42.9054 4.74316C40.0864 4.74316 38.0625 6.753 38.0625 9.48065C38.0625 12.2082 40.0864 14.2181 42.9054 14.2181ZM42.9054 12.036C41.5465 12.036 40.6068 11.0024 40.6068 9.48065C40.6068 7.94453 41.532 6.91088 42.9054 6.91088C44.2644 6.91088 45.204 7.94453 45.204 9.48065C45.204 11.0024 44.2644 12.036 42.9054 12.036Z" fill="white"/>
<path d="M51.7955 14.0743V0.909912H49.2656V14.0743H51.7955Z" fill="white"/>
<path d="M59.403 4.90137L57.4948 10.816L55.5721 4.90137H52.9844L56.3094 14.0031L54.9649 17.793H57.3792L58.6658 14.0461L61.991 4.90137H59.403Z" fill="white"/>
<path d="M69.1163 5.8055C68.6105 5.17384 67.7 4.74316 66.5864 4.74316C63.9125 4.74316 62.293 6.62376 62.293 9.48065C62.293 12.3375 63.9125 14.2181 66.6302 14.2181C67.7 14.2181 68.6685 13.8161 69.1453 13.1414V14.3473C69.1453 15.2086 68.5814 15.7972 67.8155 15.7972H63.5796V17.7784H68.2059C70.2732 17.7784 71.6611 16.5151 71.6611 14.6057V4.88672H69.1163V5.8055ZM67.0206 12.036C65.6759 12.036 64.7797 11.0311 64.7797 9.48065C64.7797 7.93018 65.6759 6.91088 67.0206 6.91088C68.3794 6.91088 69.2757 7.93018 69.2757 9.48065C69.2757 11.0311 68.3794 12.036 67.0206 12.036Z" fill="white"/>
<path d="M78.0384 14.2181C80.8575 14.2181 82.8815 12.2082 82.8815 9.48065C82.8815 6.753 80.8575 4.74316 78.0384 4.74316C75.2194 4.74316 73.1953 6.753 73.1953 9.48065C73.1953 12.2082 75.2194 14.2181 78.0384 14.2181ZM78.0384 12.036C76.6796 12.036 75.7401 11.0024 75.7401 9.48065C75.7401 7.94453 76.6653 6.91088 78.0384 6.91088C79.3973 6.91088 80.3374 7.94453 80.3374 9.48065C80.3226 11.0024 79.3973 12.036 78.0384 12.036Z" fill="white"/>
<path d="M86.7987 14.0738V9.0493C86.7987 7.87206 87.5794 7.01071 88.6924 7.01071C89.7474 7.01071 90.4559 7.81465 90.4559 8.92006V14.0738H93.0001V8.36018C93.0001 6.24983 91.656 4.75684 89.5739 4.75684C88.3163 4.75684 87.3045 5.28801 86.7839 6.17807V4.9004H84.2539V14.0738H86.7987Z" fill="white"/>
</g>
<defs>
<clipPath id="clip0_303_668">
<rect width="93" height="20" fill="white"/>
</clipPath>
</defs>
</svg>
