<svg width="98" height="19" viewBox="0 0 98 19" fill="none" xmlns="http://www.w3.org/2000/svg">
<g clip-path="url(#clip0_303_604)">
<path d="M33.1935 10.6175H36.8869C37.4063 10.6175 37.8271 11.0463 37.8271 11.5698C37.8271 12.0933 37.4063 12.5222 36.8869 12.5222H32.4325C32.3608 12.5222 32.2937 12.5492 32.2444 12.5944L30.9014 13.7633C30.6955 13.9439 30.8208 14.2824 31.0894 14.2824H36.6631C36.6631 14.2824 36.6676 14.2824 36.6676 14.2778C36.6676 14.2733 36.672 14.2733 36.672 14.2733C36.7437 14.2778 36.8109 14.2824 36.8869 14.2824C38.3643 14.2824 39.5641 13.0683 39.5641 11.5698C39.5641 10.1481 38.4852 8.97912 37.1063 8.86632C37.1063 8.86632 37.1018 8.86632 37.1018 8.86176C37.1018 8.85727 37.1018 8.85727 37.0973 8.85727H33.1219C32.6026 8.85727 32.1817 8.4285 32.1817 7.90492C32.1817 7.37685 32.6026 6.95258 33.1219 6.95258H37.5674C37.639 6.95258 37.7107 6.92554 37.7644 6.87588L39.0135 5.70692C39.2104 5.52638 39.0806 5.19238 38.8165 5.19238H33.198C33.1756 5.19238 33.1487 5.19238 33.1264 5.19238C31.649 5.19238 30.4492 6.40652 30.4492 7.90492C30.4492 9.40339 31.649 10.6175 33.1264 10.6175C33.1487 10.6175 33.1712 10.6175 33.1935 10.6175Z" fill="white"/>
<path d="M54.6972 5.18848C54.5361 5.18848 54.4062 5.31937 54.4062 5.48637V13.9896C54.4062 14.1521 54.5361 14.2875 54.6972 14.2875H61.4573C61.5379 14.2875 61.614 14.2514 61.6722 14.1927L62.5183 13.2765C62.6929 13.0869 62.5631 12.78 62.3034 12.78H56.4029C56.2417 12.78 56.112 12.6492 56.112 12.4821V5.48637C56.112 5.32388 55.9821 5.18848 55.821 5.18848H54.6972Z" fill="white"/>
<path fill-rule="evenodd" clip-rule="evenodd" d="M43.8678 5.18848C43.8633 5.19299 43.8678 5.19299 43.8678 5.18848C43.0038 5.2291 42.3099 5.92868 42.2695 6.79975V12.5182C42.2695 12.5408 42.2695 12.5679 42.2695 12.5904C42.2695 13.4976 42.9769 14.2379 43.8678 14.274H50.0011C50.8875 14.2333 51.5993 13.4931 51.5993 12.5904C51.5993 12.5679 51.5993 12.5408 51.5993 12.5182V6.80425C51.5635 5.93319 50.8696 5.2291 50.0056 5.19299H43.8678V5.18848ZM45.0094 6.80425C44.4677 6.82686 44.0334 7.26918 44.011 7.8198V11.417C44.011 11.4305 44.011 11.4485 44.011 11.4621C44.011 12.0308 44.4542 12.5002 45.0094 12.5227H48.855C49.4102 12.5002 49.8533 12.0308 49.8533 11.4621C49.8533 11.4485 49.8533 11.4305 49.8533 11.417V7.8198C49.831 7.26918 49.3967 6.83136 48.855 6.80425H45.0094Z" fill="white"/>
<path fill-rule="evenodd" clip-rule="evenodd" d="M72.3459 13.9894C72.3459 14.1519 72.4759 14.2873 72.6367 14.2873H73.7832C73.944 14.2873 74.0741 14.1564 74.0741 13.9894V6.95296C74.0741 6.93041 74.0741 6.90331 74.0741 6.88076C74.0741 5.97357 73.3711 5.23338 72.4935 5.19727H66.6066C66.584 5.19727 66.5576 5.19727 66.535 5.19727C65.6216 5.19727 64.8828 5.95101 64.8828 6.88526C64.8828 6.90787 64.8828 6.93491 64.8828 6.95752V13.9939C64.8828 14.1564 65.0128 14.2918 65.1743 14.2918H66.3201C66.481 14.2918 66.611 14.1609 66.611 13.9939V11.0647C66.611 10.9022 66.741 10.7668 66.9019 10.7668H72.0682C72.2297 10.7668 72.3591 10.8977 72.3591 11.0647V13.9894H72.3459ZM66.5978 9.14651V7.68414C66.5978 7.11547 67.0495 6.6551 67.6048 6.6551H71.3389C71.8936 6.6551 72.3459 7.11547 72.3459 7.68414V9.14651C72.3459 9.30896 72.2159 9.44437 72.055 9.44437H66.8887C66.7272 9.44437 66.5978 9.31352 66.5978 9.14651Z" fill="white"/>
<path fill-rule="evenodd" clip-rule="evenodd" d="M96.5414 14.2868C96.3806 14.2868 96.2505 14.1559 96.2505 13.9889V11.0597C96.2505 10.8972 96.1205 10.7618 95.9597 10.7618H90.7349C90.5741 10.7618 90.444 10.8927 90.444 11.0597V13.9889C90.444 14.1514 90.314 14.2868 90.1532 14.2868H88.9979C88.8371 14.2868 88.707 14.1559 88.707 13.9889V6.95246C88.707 6.92991 88.707 6.90287 88.707 6.88026C88.707 5.95051 89.4546 5.19226 90.3768 5.19226C90.3994 5.19226 90.4264 5.19226 90.4484 5.19226H96.4025C97.2889 5.23288 98.0007 5.97308 98.0007 6.87576C98.0007 6.89831 98.0007 6.92542 98.0007 6.94796V13.9844C98.0007 14.1469 97.8713 14.2823 97.7098 14.2823H96.5414V14.2868ZM90.4396 7.68364V9.14601C90.4396 9.30846 90.5697 9.44386 90.7305 9.44386H95.9553C96.1161 9.44386 96.2461 9.31302 96.2461 9.14601V7.68364C96.2461 7.11497 95.7894 6.6546 95.2297 6.6546H91.4561C90.8963 6.6546 90.4396 7.11497 90.4396 7.68364Z" fill="white"/>
<path d="M78.3804 5.18848C78.4658 5.18848 78.5462 5.22458 78.5996 5.29229L83.7396 11.4712C83.9136 11.6788 84.2497 11.5523 84.2497 11.277V5.48637C84.2497 5.32388 84.3797 5.18848 84.5406 5.18848H85.687C85.8479 5.18848 85.9779 5.31937 85.9779 5.48637V13.9896C85.9779 14.1521 85.8479 14.2875 85.687 14.2875H84.2629C84.2585 14.2875 84.2541 14.283 84.2541 14.2785C84.2541 14.274 84.2541 14.274 84.2497 14.2695L79.0205 8.13571C78.8459 7.9281 78.5104 8.05901 78.5104 8.32982V13.9941C78.5104 14.1566 78.3804 14.292 78.2196 14.292H77.0643C76.9035 14.292 76.7734 14.1611 76.7734 13.9941V5.48637C76.7734 5.32388 76.9035 5.18848 77.0643 5.18848H78.3804Z" fill="white"/>
<path d="M3.79347 14.5988C3.93673 14.4543 4.12924 14.373 4.3307 14.373H22.9768C23.317 14.373 23.4871 14.7883 23.2454 15.0275L19.561 18.7375C19.4177 18.8819 19.2252 18.9632 19.0237 18.9632H0.382106C0.0418646 18.9632 -0.128256 18.548 0.113494 18.3088L3.79347 14.5988Z" fill="white"/>
<path d="M3.79347 0.733483C3.93673 0.589054 4.12924 0.507812 4.3307 0.507812H22.9768C23.317 0.507812 23.4871 0.923046 23.2454 1.16226L19.561 4.87227C19.4177 5.0167 19.2252 5.09795 19.0237 5.09795H0.382106C0.0418646 5.09795 -0.128256 4.68271 0.113494 4.4435L3.79347 0.733483Z" fill="white"/>
<path d="M19.561 7.62092C19.4177 7.47646 19.2252 7.39526 19.0237 7.39526H0.382106C0.0418646 7.39526 -0.128256 7.81048 0.113494 8.04969L3.79795 11.7597C3.94121 11.9042 4.13372 11.9853 4.33517 11.9853H22.9813C23.3216 11.9853 23.4917 11.5701 23.2499 11.3309L19.561 7.62092Z" fill="white"/>
</g>
<defs>
<clipPath id="clip0_303_604">
<rect width="98" height="19" fill="white"/>
</clipPath>
</defs>
</svg>
