<svg width="86" height="17" viewBox="0 0 86 17" fill="none" xmlns="http://www.w3.org/2000/svg">
<g clip-path="url(#clip0_303_627)">
<path d="M26.1455 10.7687C26.226 11.5689 26.5478 12.2892 27.1914 12.7693C27.835 13.2495 28.6395 13.4896 29.6048 13.4896C30.4898 13.4896 31.1334 13.3295 31.6965 12.9294C32.2596 12.5293 32.501 12.0491 32.501 11.4089C32.501 10.9287 32.3401 10.5286 32.0988 10.2885C31.777 10.0484 31.4551 9.80832 30.892 9.6483C30.4093 9.48823 29.6853 9.32821 28.8003 9.16813C27.9154 9.00806 27.1109 8.76797 26.4673 8.52789C25.8237 8.28786 25.2606 7.8877 24.8583 7.32753C24.4561 6.76735 24.2148 6.12711 24.2148 5.24683C24.2148 4.44656 24.4561 3.72633 24.8583 3.08611C25.2606 2.4459 25.9042 1.96574 26.6282 1.64564C27.3523 1.32553 28.2372 1.08545 29.283 1.08545C30.3289 1.08545 31.2138 1.2455 32.0183 1.64564C32.8228 2.04577 33.4664 2.52593 33.8687 3.16614C34.3513 3.80635 34.5927 4.52659 34.5927 5.40688H32.3401C32.2596 4.68665 31.9378 4.12646 31.3747 3.6463C30.8116 3.24617 30.0875 3.00609 29.283 3.00609C28.4785 3.00609 27.8349 3.16614 27.2718 3.56628C26.7891 3.88638 26.5478 4.44656 26.5478 5.08678C26.5478 5.56693 26.7087 5.88702 26.95 6.12711C27.2718 6.36719 27.5936 6.60727 28.0763 6.76735C28.559 6.92737 29.283 7.00743 30.168 7.16745C31.0529 7.32753 31.8574 7.56761 32.501 7.80769C33.1446 8.04778 33.7077 8.44788 34.11 9.00806C34.5122 9.56829 34.7536 10.2085 34.7536 11.0887C34.7536 11.889 34.5122 12.6893 34.11 13.3295C33.7077 13.9697 33.0641 14.4499 32.2596 14.85C31.4551 15.2501 30.5702 15.4102 29.5244 15.4102C28.3981 15.4102 27.4327 15.2501 26.5478 14.77C25.6628 14.3699 25.0193 13.8097 24.5366 13.0894C24.0539 12.3692 23.8125 11.5689 23.8125 10.6086L26.1455 10.7687ZM37.2475 7.00743H35.4776V5.08678H37.2475V2.20582H39.5001V5.08678H41.994V7.00743H39.5001V12.3692C39.5001 12.7693 39.5805 13.0894 39.7414 13.2495C39.9023 13.4095 40.1436 13.4896 40.5459 13.4896H42.2354V15.4102H40.1436C39.1783 15.4102 38.4542 15.1701 37.9715 14.69C37.4888 14.2098 37.328 13.5696 37.328 12.6093V7.00743H37.2475ZM53.2569 5.08678V15.3302H51.326L51.0847 13.7296C50.7629 14.2098 50.2802 14.6099 49.7171 14.93C49.1539 15.2501 48.5103 15.4102 47.7058 15.4102C46.7405 15.4102 45.936 15.1701 45.2119 14.77C44.4879 14.3699 43.9248 13.7296 43.4421 12.9294C43.0398 12.1291 42.7985 11.1688 42.7985 10.1285C42.7985 9.08812 43.0398 8.2078 43.4421 7.40754C43.8443 6.60727 44.4879 5.96709 45.2119 5.56693C45.936 5.1668 46.8209 4.92673 47.7058 4.92673C48.5103 4.92673 49.1539 5.08678 49.7171 5.32686C50.2802 5.64694 50.7629 6.0471 51.0847 6.52726L51.326 5.00675H53.2569V5.08678ZM50.2802 12.6893C50.8433 12.0491 51.0847 11.2488 51.0847 10.2885C51.0847 9.24814 50.8433 8.44788 50.2802 7.80769C49.7171 7.16745 48.993 6.84736 48.1081 6.84736C47.2232 6.84736 46.4991 7.16745 45.936 7.80769C45.3728 8.44788 45.1315 9.24814 45.1315 10.2885C45.1315 11.3288 45.3728 12.1291 45.936 12.7693C46.4991 13.4095 47.2232 13.7296 48.1081 13.7296C48.993 13.6496 49.7171 13.3295 50.2802 12.6893ZM63.3933 14.4499C62.589 15.0901 61.4627 15.4902 60.1754 15.4902C59.1297 15.4902 58.2449 15.2501 57.44 14.85C56.6357 14.4499 56.0728 13.8097 55.5899 13.0094C55.1874 12.2092 54.9463 11.3288 54.9463 10.2885C54.9463 9.24814 55.1874 8.36787 55.5899 7.56761C55.9923 6.76735 56.6357 6.20717 57.44 5.727C58.2449 5.32686 59.1297 5.08678 60.1754 5.08678C61.4627 5.08678 62.5085 5.40688 63.3933 6.12711C64.1982 6.76735 64.761 7.72763 64.922 8.84804H62.6694C62.5085 8.28786 62.267 7.80769 61.7846 7.48755C61.3822 7.16745 60.8188 6.92737 60.1754 6.92737C59.2906 6.92737 58.5663 7.24752 58.0839 7.8877C57.5205 8.52789 57.279 9.32821 57.279 10.2885C57.279 11.3288 57.5205 12.1291 58.0839 12.7693C58.6467 13.4095 59.2906 13.7296 60.1754 13.7296C60.8188 13.7296 61.3822 13.5696 61.8651 13.1694C62.267 12.8493 62.589 12.3692 62.7499 11.729H65.0025C64.761 12.8493 64.1982 13.7296 63.3933 14.4499ZM66.6916 1.32553H68.8642V10.0484L73.6102 5.08678H76.1042L72.243 9.16813L76.3457 15.2501H73.7712L70.7143 10.6886L68.8642 12.6093V15.2501H66.6916V1.32553ZM78.9201 11.9691C78.9201 12.5293 79.2421 12.9294 79.644 13.2495C80.1269 13.5696 80.6898 13.7296 81.4946 13.7296C82.138 13.7296 82.7014 13.6496 83.1033 13.3295C83.5057 13.0894 83.7472 12.7693 83.7472 12.3692C83.7472 12.0491 83.6667 11.729 83.5057 11.5689C83.3447 11.4089 83.1033 11.2488 82.7819 11.1688C82.4599 11.0887 81.977 11.0087 81.3337 10.9287C80.4488 10.8487 79.644 10.6886 79.0811 10.5286C78.5177 10.3686 78.0353 10.0484 77.6329 9.6483C77.311 9.24814 77.0695 8.76797 77.0695 8.04778C77.0695 7.40754 77.2305 6.84736 77.6329 6.36719C77.9548 5.88702 78.5177 5.48692 79.0811 5.24683C79.7245 5.00675 80.4488 4.8467 81.2532 4.8467C82.5404 4.8467 83.5862 5.1668 84.471 5.727C85.2753 6.28718 85.7582 7.08744 85.8387 8.12779H83.6667C83.5862 7.64762 83.3447 7.24752 82.9423 7.00743C82.5404 6.68728 81.977 6.52726 81.3337 6.52726C80.6898 6.52726 80.2074 6.60727 79.805 6.84736C79.4025 7.08744 79.2421 7.40754 79.2421 7.80769C79.2421 8.12779 79.3226 8.36787 79.5635 8.52789C79.7245 8.68796 79.9659 8.76797 80.2879 8.84804C80.6093 8.92805 81.0922 9.00806 81.7355 9.08812C82.6209 9.16813 83.3447 9.32821 83.9886 9.48823C84.632 9.6483 85.1149 9.96839 85.4363 10.3686C85.7582 10.7687 85.9997 11.3288 85.9997 12.0491C85.9997 12.6893 85.8387 13.2495 85.4363 13.7296C85.0344 14.2098 84.5515 14.6099 83.9081 14.85C83.2642 15.0901 82.5404 15.2501 81.6556 15.2501C80.2879 15.2501 79.1616 14.93 78.2762 14.2898C77.3914 13.6496 76.9896 12.8493 76.9091 11.729L78.9201 11.9691Z" fill="white"/>
<path d="M11.3433 11.4087L14.7222 16.5304H12.1478L8.12535 10.4483L4.1029 16.5304H1.52853L4.90739 11.4087H0V9.48804H16.0898V11.4087H11.3433Z" fill="white"/>
<path d="M16.25 5.6466V7.56722H0.160156V5.56659H4.9871L1.60824 0.524902H4.18261L8.20504 6.68695L12.308 0.524902H14.8823L11.5035 5.56659H16.25V5.6466Z" fill="white"/>
</g>
<defs>
<clipPath id="clip0_303_627">
<rect width="86" height="17" fill="white"/>
</clipPath>
</defs>
</svg>
