<svg width="77" height="30" viewBox="0 0 77 30" fill="none" xmlns="http://www.w3.org/2000/svg">
<g clip-path="url(#clip0_303_568)">
<mask id="mask0_303_568" style="mask-type:luminance" maskUnits="userSpaceOnUse" x="0" y="0" width="77" height="30">
<path d="M77 0H0V29.7143H77V0Z" fill="white"/>
</mask>
<g mask="url(#mask0_303_568)">
<mask id="mask1_303_568" style="mask-type:luminance" maskUnits="userSpaceOnUse" x="0" y="0" width="77" height="30">
<path d="M77 0H0V29.7143H77V0Z" fill="white"/>
</mask>
<g mask="url(#mask1_303_568)">
<path d="M14.7526 29.7143C22.8528 29.7143 29.4192 23.0625 29.4192 14.8572C29.4192 6.65175 22.8528 0 14.7526 0C6.65242 0 0.0859375 6.65175 0.0859375 14.8572C0.0859375 23.0625 6.65242 29.7143 14.7526 29.7143Z" fill="white"/>
<path d="M19.7593 8.29248H9.74319C7.90156 8.29248 6.73437 10.3048 7.66083 11.9316L13.8424 22.7852C14.2458 23.4939 15.2567 23.4939 15.6601 22.7852L21.8429 11.9316C22.7682 10.3074 21.6009 8.29248 19.7606 8.29248H19.7593ZM13.8374 19.5303L12.4912 16.891L9.24279 11.0058C9.02852 10.6292 9.29318 10.1465 9.74196 10.1465H13.8361V19.5316L13.8374 19.5303ZM20.2572 11.0046L17.0101 16.8923L15.6638 19.5303V10.1452H19.7581C20.2068 10.1452 20.4715 10.6279 20.2572 11.0046Z" fill="black"/>
<path d="M38.6635 23.0643H41.9485V11.4592H46.4907V8.29785H34.1211V11.4592H38.6635V23.0643Z" fill="white"/>
<path d="M54.3868 23.3139C58.5334 23.3139 61.9214 19.8823 61.9214 15.6811C61.9214 11.48 58.5334 8.04834 54.3868 8.04834C50.2189 8.04834 46.8516 11.48 46.8516 15.6811C46.8516 19.8823 50.2189 23.3139 54.3868 23.3139ZM54.3868 20.111C52.0047 20.111 50.1365 18.0729 50.1365 15.6811C50.1365 13.2894 52.0047 11.2512 54.3868 11.2512C56.7476 11.2512 58.6158 13.2894 58.6158 15.6811C58.6158 18.0729 56.7476 20.111 54.3868 20.111Z" fill="white"/>
<path d="M76.9157 23.0643V8.29785H73.6304V17.4073L66.5473 8.29785H63.7344V23.0643H66.999V13.9341L74.1027 23.0643H76.9157Z" fill="white"/>
</g>
</g>
</g>
<defs>
<clipPath id="clip0_303_568">
<rect width="77" height="30" fill="white"/>
</clipPath>
</defs>
</svg>
