<svg width="86" height="27" viewBox="0 0 86 27" fill="none" xmlns="http://www.w3.org/2000/svg">
<g clip-path="url(#clip0_303_719)">
<path fill-rule="evenodd" clip-rule="evenodd" d="M0 0.0592041L10.6923 26.6023L25.5851 8.69484L20.3185 3.74884L0 0.0592041ZM3.78685 2.17438L18.4251 4.83028L12.7448 9.50594L3.78685 2.17438ZM2.76854 3.16041L12.1084 10.81L10.6445 22.7218L2.76854 3.16041ZM19.9685 5.371L23.0712 8.28135L14.5746 9.80812L19.9685 5.371ZM13.4449 11.4303L22.8484 9.74448L12.0606 22.7218L13.4449 11.4303Z" fill="white"/>
<path fill-rule="evenodd" clip-rule="evenodd" d="M54.7353 12.7508C55.4195 12.0988 55.7695 11.2082 55.7695 10.1108C55.7695 6.08723 52.1577 6.10315 52.11 6.10315H45.7455H44.4727V18.7147H45.7296V7.35953H52.0623C52.2532 7.3754 54.4967 7.53448 54.4967 10.1108C54.4967 10.8742 54.2898 11.4309 53.8602 11.8443C53.0487 12.6236 51.6804 12.56 51.6804 12.56H46.6843V18.7306H47.9413V13.8323H51.6327L54.5921 18.7783H56.0562L53.001 13.6732C53.5738 13.4983 54.2103 13.2438 54.7353 12.7508Z" fill="white"/>
<path fill-rule="evenodd" clip-rule="evenodd" d="M34.3203 18.6987H35.5773V10.0312H34.3203V18.6987Z" fill="white"/>
<path fill-rule="evenodd" clip-rule="evenodd" d="M30.3438 7.32737H41.6088V6.08691H30.3438V7.32737Z" fill="white"/>
<path fill-rule="evenodd" clip-rule="evenodd" d="M36.5156 18.6987H37.7726V10.0312H36.5156V18.6987Z" fill="white"/>
<path fill-rule="evenodd" clip-rule="evenodd" d="M76.8516 18.6515H78.1245V14.0713H76.8516V18.6515Z" fill="white"/>
<path fill-rule="evenodd" clip-rule="evenodd" d="M84.7255 6.16665V16.2973L74.5742 4.84668V18.6192H75.8471V8.58403L85.9984 20.0346V6.16665H84.7255Z" fill="white"/>
<path fill-rule="evenodd" clip-rule="evenodd" d="M65.4755 17.4739C62.6116 17.4739 60.2885 15.1679 60.2885 12.3529C60.2885 9.53799 62.6116 7.23197 65.4755 7.23197C68.3395 7.23197 70.6626 9.53799 70.6626 12.3529C70.6626 15.1679 68.3395 17.4739 65.4755 17.4739ZM65.4755 5.97559C61.9115 5.97559 59.0156 8.83825 59.0156 12.3529C59.0156 15.8676 61.9115 18.7303 65.4755 18.7303C69.0396 18.7303 71.9355 15.8676 71.9355 12.3529C71.9355 8.83825 69.0396 5.97559 65.4755 5.97559Z" fill="white"/>
<path fill-rule="evenodd" clip-rule="evenodd" d="M65.4764 11.3506C64.999 11.3506 64.6016 11.7323 64.6016 12.2094C64.6016 12.6865 64.999 13.0682 65.4764 13.0682C65.9539 13.0682 66.3519 12.6865 66.3519 12.2094C66.3519 11.7323 65.9539 11.3506 65.4764 11.3506Z" fill="white"/>
</g>
<defs>
<clipPath id="clip0_303_719">
<rect width="86" height="27" fill="white"/>
</clipPath>
</defs>
</svg>
